<svg xmlns="http://www.w3.org/2000/svg" viewBox="0 0 145.39 167.89"><defs><style>.cls-1{fill:none;stroke:#282837;stroke-miterlimit:10;stroke-width:2.5px;}.cls-2{fill:#282837;}</style></defs><title>creativeIcon</title><g id="Layer_2" data-name="Layer 2"><g id="Artwork"><polygon class="cls-1" points="1.25 42.69 1.25 125.19 72.7 166.44 144.14 125.19 144.14 42.69 72.7 1.44 1.25 42.69"/><rect class="cls-2" x="55.43" y="99.06" width="2.62" height="2.62" transform="translate(-54.35 69.52) rotate(-45)"/><path class="cls-2" d="M95.16,47.19,40.23,102.12,35.94,120.7l18.58-4.29L93.35,77.58l-1.86-1.85L53.62,113.61l-.44-3.93-5.59-.62-.63-5.6L43,103,88.76,57.29l4.63,4.63L58.58,96.73l1.85,1.85L95.25,63.77l4.1,4.11-2.29,2.29L98.91,72l10.54-10.54ZM39.63,116.37l.65.64-.84.19Zm5.58-4.94,5.6.62.27,2.46-7.79,1.8-3-3,1.8-7.79,2.46.27Zm45.41-56,4.54-4.54,10.58,10.58L101.2,66Z"/><rect class="cls-2" x="93.98" y="72.57" width="2.62" height="2.62" transform="translate(-24.33 89.02) rotate(-45)"/></g></g></svg>