<svg xmlns="http://www.w3.org/2000/svg" viewBox="0 0 145.39 167.89"><defs><style>.cls-1{fill:none;stroke:#282837;stroke-miterlimit:10;stroke-width:2.5px;}.cls-2{fill:#282837;}</style></defs><title>data</title><g id="Layer_2" data-name="Layer 2"><g id="Artwork"><polygon class="cls-1" points="1.25 42.69 1.25 125.19 72.7 166.44 144.14 125.19 144.14 42.69 72.7 1.44 1.25 42.69"/><path class="cls-2" d="M94.69,47.19H86.78v2.49h7.91a11.25,11.25,0,0,1,11,11.46v19H76.8V49.68h2.51V47.19h-5V82.58h33.88V61.14A13.75,13.75,0,0,0,94.69,47.19Z"/><path class="cls-2" d="M37.21,61.14V82.58H71.08V47.19H50.7A13.74,13.74,0,0,0,37.21,61.14Zm31.38,19H39.7v-19a11.25,11.25,0,0,1,11-11.46H68.59Z"/><path class="cls-2" d="M74.31,120.7H94.69a13.75,13.75,0,0,0,13.5-14V86H74.31ZM76.8,88.49h28.9v18.25a11.25,11.25,0,0,1-11,11.46H76.8Z"/><path class="cls-2" d="M37.21,106.74a13.74,13.74,0,0,0,13.49,14h7.9v-2.5H50.7a11.25,11.25,0,0,1-11-11.46V88.49H68.59V118.2H66.07v2.5h5V86H37.21Z"/><path class="cls-2" d="M48.87,57.51,46.75,59.7l-1.67,1.73,1.67,1.73,2.18,2.27-2.18,2.26-1.67,1.73,1.67,1.72,2.12,2.2,1.79,1.86,1.79-1.86,2.06-2.13,2.06,2.13,1.79,1.86,1.8-1.86,2.11-2.2,1.67-1.73-1.67-1.73-2.18-2.25,2.18-2.26,1.67-1.74L62.27,59.7l-2.11-2.19-1.8-1.86-1.79,1.86-2.06,2.13-2-2.13-1.8-1.86Zm5.64,5.72,3.85-4,2.12,2.19-3.85,4,3.85,4-2.12,2.19-3.85-4-3.85,4-2.12-2.19,3.85-4-3.85-4,2.12-2.19Z"/><path class="cls-2" d="M58.58,98.74V93.55H50.41v5.19h-5V107h5v5.19h8.17V107h5v-8.3h-5Zm2.51,5.81h-5v5.19H52.91v-5.19h-5v-3.32h5V96h3.17v5.19h5Z"/><path class="cls-2" d="M97.68,102.17h2.49v-7.4H82v7.4H97.68Zm-13.19-4.9H97.68v2.41H84.49Z"/><path class="cls-2" d="M100.17,111v-7.4H82V111h18.17Zm-15.68-4.9H97.68v2.41H84.49Z"/><path class="cls-2" d="M82,61.83V68.6h18.18V61.83H82Zm15.69,4.28H84.48V64.32h13.2Z"/><path class="cls-2" d="M94.46,57.67a3.58,3.58,0,1,0-3.59,3.69A3.64,3.64,0,0,0,94.46,57.67Zm-4.67,0a1.09,1.09,0,1,1,1.08,1.19A1.14,1.14,0,0,1,89.79,57.67Z"/><path class="cls-2" d="M87.3,72.75a3.58,3.58,0,1,0,3.57-3.68A3.63,3.63,0,0,0,87.3,72.75Zm4.67,0a1.09,1.09,0,1,1-1.1-1.19A1.14,1.14,0,0,1,92,72.75Z"/><rect class="cls-2" x="61.09" y="118.21" width="2.49" height="2.49"/><rect class="cls-2" x="81.8" y="47.19" width="2.49" height="2.49"/></g></g></svg>