<svg xmlns="http://www.w3.org/2000/svg" viewBox="0 0 145.39 167.89"><defs><style>.cls-1{fill:#fff;stroke:#5eb1ac;stroke-miterlimit:10;stroke-width:2.5px;}.cls-2{fill:#5eb1ac;}</style></defs><title>Asset 3</title><g id="Layer_2" data-name="Layer 2"><g id="Artwork"><polygon class="cls-1" points="1.25 42.69 1.25 125.19 72.7 166.44 144.14 125.19 144.14 42.69 72.7 1.44 1.25 42.69"/><path class="cls-2" d="M66.93,53H64.05a1.6,1.6,0,1,1,0-3.2h17.3a1.6,1.6,0,1,1,0,3.2H78.46a1.29,1.29,0,0,0,0,2.57h1.6V73.28a1.26,1.26,0,0,0,.17.62l8.64,15.37-.3,0a27.7,27.7,0,0,0-15,3.07,25.32,25.32,0,0,1-11.67,2.87A25,25,0,0,1,54.11,94l-.19-.06,11.24-20a1.26,1.26,0,0,0,.17-.62V55.53h1.6a1.29,1.29,0,0,0,0-2.57m23.51,39.1,0,.07,8.45,15a7.37,7.37,0,0,1-6.42,11H52.89a7.37,7.37,0,0,1-6.42-11l6.17-11,.13,0a27.45,27.45,0,0,0,10.47,1.51A27.93,27.93,0,0,0,74.73,94.6a25.06,25.06,0,0,1,15.64-2.55ZM62.74,73,44.23,105.89a9.93,9.93,0,0,0,8.66,14.8H92.51a9.93,9.93,0,0,0,8.65-14.8L82.63,72.94V55.33l.11,0a4.17,4.17,0,0,0-1.39-8.1H64.05a4.17,4.17,0,0,0-1.39,8.1l.1,0V72.94Z"/><path class="cls-2" d="M90,109.48H61.16a1.28,1.28,0,1,0,0,2.56H90a1.28,1.28,0,0,0,0-2.56"/><path class="cls-2" d="M55.4,109.48a1.28,1.28,0,1,0,1.28,1.28,1.28,1.28,0,0,0-1.28-1.28"/><path class="cls-2" d="M66.93,86.41a1.6,1.6,0,1,1,1.6-1.6,1.6,1.6,0,0,1-1.6,1.6m0-5.77a4.17,4.17,0,1,0,4.17,4.17,4.17,4.17,0,0,0-4.17-4.17"/><path class="cls-2" d="M78.46,80.64a1.29,1.29,0,1,0,1.29,1.29,1.29,1.29,0,0,0-1.29-1.29"/><path class="cls-2" d="M72.7,72A1.29,1.29,0,1,0,74,73.27,1.29,1.29,0,0,0,72.7,72"/></g></g></svg>