<svg xmlns="http://www.w3.org/2000/svg" viewBox="0 0 145.39 167.89"><defs><style>.cls-1{fill:none;stroke:#e591b0;stroke-miterlimit:10;stroke-width:2.5px;}.cls-2{fill:#e591b0;}</style></defs><title>strategyicon</title><g id="Layer_2" data-name="Layer 2"><g id="Artwork"><polygon class="cls-1" points="1.25 42.69 1.25 125.19 72.7 166.44 144.14 125.19 144.14 42.69 72.7 1.44 1.25 42.69"/><path class="cls-2" d="M77.75,53.62a5.06,5.06,0,1,0-5,5.05A5.06,5.06,0,0,0,77.75,53.62Zm-7.44,0A2.39,2.39,0,1,1,72.7,56,2.39,2.39,0,0,1,70.31,53.62Z"/><path class="cls-2" d="M67.89,81.57A5.47,5.47,0,1,0,62.42,87,5.48,5.48,0,0,0,67.89,81.57Zm-5.47,2.8a2.8,2.8,0,1,1,2.8-2.8A2.8,2.8,0,0,1,62.42,84.37Z"/><path class="cls-2" d="M80.71,108.21a5.47,5.47,0,1,0-5.47-5.47A5.47,5.47,0,0,0,80.71,108.21Zm0-8.27a2.81,2.81,0,1,1-2.8,2.8A2.8,2.8,0,0,1,80.71,99.94Z"/><path class="cls-2" d="M72.79,71.08l2.36-2.36-1.89-1.89L67.8,72.3l5.46,5.46,1.89-1.88L73,73.75a13.63,13.63,0,0,1,13,13.6h2.67A16.29,16.29,0,0,0,72.79,71.08Z"/><rect class="cls-2" x="86.17" y="89.89" width="2.48" height="2.48"/><polygon class="cls-2" points="73.61 93.98 73.61 91.69 75.89 91.69 75.89 89.03 73.61 89.03 73.61 86.74 70.94 86.74 70.94 89.03 68.66 89.03 68.66 91.69 70.94 91.69 70.94 93.98 73.61 93.98"/><polygon class="cls-2" points="63.76 106.36 63.76 104.08 66.04 104.08 66.04 101.41 63.76 101.41 63.76 99.13 61.09 99.13 61.09 101.41 58.8 101.41 58.8 104.08 61.09 104.08 61.09 106.36 63.76 106.36"/><path class="cls-2" d="M84.29,52.28a11.67,11.67,0,0,0-23.19,0h-17v69.66h8v-2.66h-5.3V55H63.69V53.62a9,9,0,1,1,18,0V55h17v64.33H60v2.66h41.28V52.28Z"/><rect class="cls-2" x="54.71" y="119.28" width="2.67" height="2.67"/><polygon class="cls-2" points="50.22 116.15 95.18 116.15 95.18 60.72 92.45 60.72 92.51 113.49 52.88 113.49 52.88 63.38 84.45 63.38 84.45 60.72 50.22 60.72 50.22 116.15"/><rect class="cls-2" x="87.13" y="60.7" width="2.67" height="2.67"/></g></g></svg>