<svg xmlns="http://www.w3.org/2000/svg" viewBox="0 0 72.13 139.5"><defs><style>.cls-1,.cls-3{fill:#fff;}.cls-1{stroke:#d4d5d6;stroke-miterlimit:10;stroke-width:0.5px;}.cls-2{fill:#646463;}.cls-4{fill:#292b30;}.cls-5{fill:#8e8e8d;}.cls-6{fill:#525251;}</style></defs><title>award2</title><g id="Layer_2" data-name="Layer 2"><g id="Artwork"><rect class="cls-1" x="0.25" y="0.25" width="71.63" height="139"/><rect class="cls-2" x="6.52" y="29.15" width="59.21" height="59.51"/><path class="cls-3" d="M16.17,34.32a5.16,5.16,0,0,1,2.46-.64,5.53,5.53,0,0,1,2.15.47,6.48,6.48,0,0,1,2,1.37l.86-.81a7.83,7.83,0,0,0-2.41-1.6,7,7,0,0,0-2.64-.5,6.34,6.34,0,0,0-3.09.75,5.59,5.59,0,0,0-2.15,2.11,5.69,5.69,0,0,0-.78,2.91,5.53,5.53,0,0,0,1.36,3.7,6.06,6.06,0,0,0,4.84,2.07,5.44,5.44,0,0,0,4-1.5,5.57,5.57,0,0,0,1.51-4.07H19.56v1.07h3.5a3.72,3.72,0,0,1-1.39,2.47,4.38,4.38,0,0,1-2.87,1,5.36,5.36,0,0,1-2.58-.64,4.65,4.65,0,0,1-1.84-1.76,4.46,4.46,0,0,1-.67-2.35A4.53,4.53,0,0,1,14.35,36a4.64,4.64,0,0,1,1.82-1.72"/><polygon class="cls-3" points="58.53 73.97 54.1 78.11 54.1 73.97 53.01 73.97 53.01 84.96 54.1 84.96 54.1 79.84 58.94 84.96 60.4 84.96 54.69 78.91 59.98 73.97 58.53 73.97"/><path class="cls-3" d="M35.77,73.69a5.66,5.66,0,0,0-2.87.77,5.57,5.57,0,0,0-2.08,2.12,5.86,5.86,0,0,0-.77,2.93,5.53,5.53,0,0,0,1.68,4.06,5.63,5.63,0,0,0,4.13,1.66,5.79,5.79,0,0,0,4.08-9.87,5.69,5.69,0,0,0-4.17-1.67m4.11,8.16a4.45,4.45,0,0,1-1.7,1.69,4.6,4.6,0,0,1-2.36.62,4.4,4.4,0,0,1-3.27-1.35,4.45,4.45,0,0,1-1.37-3.3,4.77,4.77,0,0,1,.62-2.4,4.57,4.57,0,0,1,1.71-1.7,4.42,4.42,0,0,1,2.31-.64,4.82,4.82,0,0,1,4.06,2.32,4.75,4.75,0,0,1,.61,2.37,4.83,4.83,0,0,1-.61,2.39"/><polygon class="cls-3" points="19.19 84.96 22.49 76.64 25.76 84.96 25.95 84.96 29.11 73.97 27.99 73.97 25.71 81.89 22.6 73.97 22.39 73.97 19.24 81.89 16.98 73.97 15.87 73.97 19 84.96 19.19 84.96"/><polygon class="cls-3" points="44.69 71.26 44.69 61.35 47.14 61.35 47.14 60.28 41.15 60.28 41.15 61.35 43.6 61.35 43.6 71.26 44.69 71.26"/><polygon class="cls-3" points="53.59 57.57 59.85 57.57 59.85 56.49 54.69 56.49 54.69 52.17 59.85 52.17 59.85 51.1 54.69 51.1 54.69 47.66 59.88 47.66 59.88 46.59 53.59 46.59 53.59 57.57"/><path class="cls-3" d="M40.65,52A5.81,5.81,0,0,0,42,55.93a5.69,5.69,0,0,0,4.53,1.92,6.4,6.4,0,0,0,2.74-.57,5.62,5.62,0,0,0,2-1.62L50.5,55a4.91,4.91,0,0,1-3.87,1.82,4.73,4.73,0,0,1-3.47-1.36,4.48,4.48,0,0,1-1.38-3.36,4.7,4.7,0,0,1,.62-2.39A4.56,4.56,0,0,1,44.13,48a5.15,5.15,0,0,1,4.64-.15,4.77,4.77,0,0,1,1.73,1.41l.86-.67a5.47,5.47,0,0,0-2-1.69,6.1,6.1,0,0,0-2.77-.61A5.82,5.82,0,0,0,42.33,48,5.46,5.46,0,0,0,40.65,52"/><polygon class="cls-3" points="53.98 33.96 56.43 33.96 56.43 43.87 57.53 43.87 57.53 33.96 59.97 33.96 59.97 32.88 53.98 32.88 53.98 33.96"/><path class="cls-3" d="M33.39,43.9l-2.91-5.19a4,4,0,0,0,1.11-.29,2.56,2.56,0,0,0,1.21-1,2.94,2.94,0,0,0,.42-1.58A2.72,2.72,0,0,0,32.61,34,2.86,2.86,0,0,0,31,33a14.15,14.15,0,0,0-2.48-.15H26.35v11h1.1V38.78h1.89l2.88,5.12Zm-5.94-6.19V34h1.94a4.68,4.68,0,0,1,1.61.2,1.64,1.64,0,0,1,.79.64,1.81,1.81,0,0,1,.3,1,1.85,1.85,0,0,1-.3,1,1.75,1.75,0,0,1-.82.67,4.72,4.72,0,0,1-1.63.2Z"/><path class="cls-3" d="M50.91,85,48,79.82a4.35,4.35,0,0,0,1.12-.28,2.65,2.65,0,0,0,1.2-1,3,3,0,0,0,.43-1.59,2.73,2.73,0,0,0-.61-1.81,2.79,2.79,0,0,0-1.6-1A13.15,13.15,0,0,0,46.06,74H43.87V85H45V79.88h1.88L49.73,85ZM45,78.82V75.08H46.9a5.15,5.15,0,0,1,1.62.18,1.66,1.66,0,0,1,.78.66,1.76,1.76,0,0,1,.3,1,1.78,1.78,0,0,1-.3,1,1.65,1.65,0,0,1-.82.67,4.65,4.65,0,0,1-1.62.21Z"/><path class="cls-3" d="M14.38,40.68a4.65,4.65,0,0,0,1.84,1.76,5.36,5.36,0,0,0,2.58.64,4.38,4.38,0,0,0,2.87-1,3.72,3.72,0,0,0,1.39-2.47h-3.5V38.58H24.3a5.57,5.57,0,0,1-1.51,4.07,5.44,5.44,0,0,1-4,1.5,6.07,6.07,0,0,1-4.84-2.07,5.53,5.53,0,0,1-1.36-3.7,5.69,5.69,0,0,1,.78-2.91,5.59,5.59,0,0,1,2.15-2.11,6.34,6.34,0,0,1,3.09-.75,7,7,0,0,1,2.64.5,7.83,7.83,0,0,1,2.41,1.6l-.86.81a6.48,6.48,0,0,0-2-1.37,5.53,5.53,0,0,0-2.15-.47,5.16,5.16,0,0,0-2.46.64A4.64,4.64,0,0,0,14.35,36a4.53,4.53,0,0,0-.64,2.29,4.46,4.46,0,0,0,.67,2.35"/><path class="cls-3" d="M20,51.32a2.77,2.77,0,0,0,.58-1.81,2.72,2.72,0,0,0-2.13-2.76,12.72,12.72,0,0,0-2.54-.16H13.73v11h1.09V52.45h.79a14.38,14.38,0,0,0,2.79-.17,2.92,2.92,0,0,0,1.61-1m-3.33.08-1.86,0V47.66h1.95a4.75,4.75,0,0,1,1.6.19,1.67,1.67,0,0,1,.79.65,1.88,1.88,0,0,1,0,2,1.78,1.78,0,0,1-.82.66,5.11,5.11,0,0,1-1.66.2"/><polygon class="cls-3" points="41.89 33.96 36.69 33.96 36.69 37.41 41.85 37.41 41.85 38.48 36.69 38.48 36.69 42.8 41.85 42.8 41.85 43.87 35.59 43.87 35.59 32.88 41.89 32.88 41.89 33.96"/><polygon class="cls-3" points="41.89 33.96 36.69 33.96 36.69 37.41 41.85 37.41 41.85 38.48 36.69 38.48 36.69 42.8 41.85 42.8 41.85 43.87 35.59 43.87 35.59 32.88 41.89 32.88 41.89 33.96"/><path class="cls-3" d="M52.57,43.87l-1.72-3.6H46.08l-1.7,3.6H43.16l5.19-11h.28l5.12,11Zm-6-4.68h3.79l-1.89-4Z"/><path class="cls-3" d="M38.69,57.6,37,54H32.21L30.5,57.6H29.28l5.19-11h.28l5.12,11Zm-6-4.68h3.77l-1.88-4Z"/><polygon class="cls-3" points="23.78 46.59 22.68 46.59 22.68 57.57 28.02 57.57 28.02 56.49 23.78 56.49 23.78 46.59"/><path class="cls-3" d="M58.16,69.86a5.83,5.83,0,0,0,0-8.19A5.69,5.69,0,0,0,54,60a5.63,5.63,0,0,0-2.86.77A5.57,5.57,0,0,0,49,62.88a5.87,5.87,0,0,0-.77,2.94A5.46,5.46,0,0,0,50,69.87a5.59,5.59,0,0,0,4.12,1.67,5.52,5.52,0,0,0,4.08-1.68m-7.39-.73a4.5,4.5,0,0,1-1.36-3.32A4.73,4.73,0,0,1,50,63.42a4.43,4.43,0,0,1,1.7-1.71A4.55,4.55,0,0,1,54,61.07a4.63,4.63,0,0,1,2.34.64A4.44,4.44,0,0,1,58.1,63.4a4.69,4.69,0,0,1,.61,2.36,4.86,4.86,0,0,1-.61,2.4,4.45,4.45,0,0,1-1.7,1.69,4.73,4.73,0,0,1-2.36.62,4.48,4.48,0,0,1-3.27-1.34"/><path class="cls-3" d="M63.68,74.1a2,2,0,0,0-1-.25,2,2,0,0,0-.95.25,1.88,1.88,0,0,0-.7.7,1.88,1.88,0,0,0,.7,2.59,1.79,1.79,0,0,0,.95.26,1.91,1.91,0,0,0,1.65-1,1.92,1.92,0,0,0-.69-2.6M64,76.5a1.5,1.5,0,0,1-.55.54,1.57,1.57,0,0,1-.76.2A1.5,1.5,0,0,1,62,77a1.61,1.61,0,0,1-.56-.54,1.5,1.5,0,0,1-.2-.75,1.45,1.45,0,0,1,.45-1.07,1.5,1.5,0,0,1,1.07-.44,1.52,1.52,0,0,1,1.5,1.52,1.49,1.49,0,0,1-.2.74"/><path class="cls-3" d="M63.56,76.22a.71.71,0,0,0-.05-.27.41.41,0,0,0-.16-.16.45.45,0,0,0,.19-.2.67.67,0,0,0,.06-.27.71.71,0,0,0-.09-.34.47.47,0,0,0-.22-.2,1.06,1.06,0,0,0-.42-.07h-.93V76.8h.46V76h.36A.56.56,0,0,1,63,76a.24.24,0,0,1,.08.09,2,2,0,0,1,0,.34.88.88,0,0,0,0,.2s0,.09,0,.14h.53a.24.24,0,0,1-.09-.12,2.66,2.66,0,0,1,0-.46m-.49-.67a.48.48,0,0,1-.29.06H62.4v-.49h.39a.52.52,0,0,1,.29,0,.24.24,0,0,1,.07.19.23.23,0,0,1-.08.19"/><path class="cls-4" d="M7.92,116.72H9.87c1.08,0,1.65.44,1.65,1.29v0a1,1,0,0,1-.81,1.06,1.08,1.08,0,0,1,1,1.16v0c0,.91-.59,1.39-1.74,1.39h-2Zm1.77,2c.54,0,.76-.2.76-.64v0c0-.41-.24-.6-.76-.6H9v1.27Zm.1,2.14c.55,0,.8-.25.8-.7v0c0-.45-.25-.69-.86-.69H9v1.42Z"/><path class="cls-4" d="M12.14,119.91v-.06A1.8,1.8,0,0,1,14,118a1.67,1.67,0,0,1,1.77,1.84v.28H13.16c0,.6.35,1,.9,1s.69-.2.76-.51h.95c-.12.79-.75,1.22-1.74,1.22A1.76,1.76,0,0,1,12.14,119.91Zm2.66-.44c0-.54-.32-.81-.8-.81a.83.83,0,0,0-.83.81Z"/><path class="cls-4" d="M16.15,120.54h.93c0,.33.2.51.64.51s.57-.14.57-.39-.22-.35-.74-.43c-1-.15-1.34-.42-1.34-1.13s.7-1.13,1.44-1.13,1.41.29,1.5,1.12h-.92a.5.5,0,0,0-.57-.44c-.33,0-.52.16-.52.38s.18.32.7.39c.91.14,1.41.36,1.41,1.14s-.57,1.19-1.52,1.19S16.18,121.32,16.15,120.54Z"/><path class="cls-4" d="M20,120.6v-1.83h-.47v-.72H20v-.78h1v.78h.76v.72H21v1.74c0,.29.14.43.4.43a.92.92,0,0,0,.38-.07v.78a1.79,1.79,0,0,1-.61.1A1,1,0,0,1,20,120.6Z"/><path class="cls-4" d="M23.51,116.72h1.14l.78,3.43.84-3.43h1l.88,3.45.81-3.45h1l-1.21,5H27.6l-.89-3.43-.91,3.43H24.72Z"/><path class="cls-4" d="M30,119.9v-.05a1.91,1.91,0,0,1,3.82,0v0a1.91,1.91,0,0,1-3.82,0Zm2.8,0v0c0-.69-.32-1.11-.89-1.11s-.88.4-.88,1.1v0c0,.7.31,1.11.88,1.11S32.84,120.58,32.84,119.89Z"/><path class="cls-4" d="M34.44,118.05h1v.69a1.18,1.18,0,0,1,1.17-.74v.93c-.74,0-1.17.24-1.17.93v1.82h-1Z"/><path class="cls-4" d="M37.09,116.41h1v3.17l1.17-1.53h1.07L39,119.7l1.42,2H39.29L38.09,120v1.71h-1Z"/><path class="cls-4" d="M40.83,118.05h1v.57A1.33,1.33,0,0,1,43,118c.89,0,1.58.66,1.58,1.86v0c0,1.2-.68,1.87-1.58,1.87a1.26,1.26,0,0,1-1.16-.63v1.79h-1Zm2.72,1.84v-.06c0-.73-.36-1.09-.87-1.09s-.88.37-.88,1.09v.06c0,.73.34,1.08.89,1.08S43.55,120.6,43.55,119.89Z"/><path class="cls-4" d="M45.2,116.41h1v5.27h-1Z"/><path class="cls-4" d="M46.79,120.67c0-.84.77-1.16,1.88-1.16h.41v-.15c0-.43-.13-.66-.59-.66a.54.54,0,0,0-.61.51h-1c.06-.86.74-1.24,1.63-1.24s1.51.36,1.51,1.34v2.37h-1v-.44a1.24,1.24,0,0,1-1.1.51C47.34,121.75,46.79,121.44,46.79,120.67Zm2.29-.26v-.31h-.39c-.58,0-.92.13-.92.52s.16.43.53.43S49.08,120.81,49.08,120.41Z"/><path class="cls-4" d="M50.64,119.91v-.06A1.79,1.79,0,0,1,52.51,118a1.51,1.51,0,0,1,1.7,1.41h-1a.66.66,0,0,0-.73-.62c-.52,0-.87.39-.87,1.08v.06c0,.72.33,1.1.89,1.1a.74.74,0,0,0,.78-.7h.9a1.54,1.54,0,0,1-1.73,1.45A1.73,1.73,0,0,1,50.64,119.91Z"/><path class="cls-4" d="M54.58,119.91v-.06A1.8,1.8,0,0,1,56.45,118a1.67,1.67,0,0,1,1.76,1.84v.28H55.6c0,.6.35,1,.9,1s.7-.2.76-.51h1c-.12.79-.74,1.22-1.74,1.22A1.76,1.76,0,0,1,54.58,119.91Zm2.66-.44c0-.54-.32-.81-.79-.81a.84.84,0,0,0-.84.81Z"/><path class="cls-4" d="M58.59,120.54h.93c0,.33.2.51.64.51s.57-.14.57-.39-.22-.35-.74-.43c-1-.15-1.33-.42-1.33-1.13s.69-1.13,1.43-1.13,1.41.29,1.5,1.12h-.92a.5.5,0,0,0-.57-.44c-.33,0-.51.16-.51.38s.17.32.7.39c.9.14,1.4.36,1.4,1.14s-.57,1.19-1.52,1.19S58.62,121.32,58.59,120.54Z"/><path class="cls-4" d="M62.36,116.76H62v-.28h1.07v.28h-.36v1h-.36Zm.9-.28h.44l.29.74.29-.74h.44v1.3h-.36v-.84l-.34.84h-.11l-.34-.84v.84h-.31Z"/><path class="cls-5" d="M10.21,109.33,16,103.16c1.65-1.78,2.75-3.2,2.75-4.6A1.66,1.66,0,0,0,17,96.7c-1.18,0-1.93.72-2.14,2.7H10.53c.17-4.17,2.68-6.29,6.72-6.29s6.24,2.19,6.24,5.27c0,2.28-1.28,4-3.14,5.8L18,106.44h5.59V110H10.21Z"/><path class="cls-5" d="M24.26,102v-.7c0-5.27,3.29-8.23,7.7-8.23s7.69,2.73,7.69,8.13v.66c0,5.29-3,8.39-7.79,8.39S24.26,107.28,24.26,102ZM34.87,102v-.68c0-3-.89-4.59-2.91-4.59S29,98.24,29,101.31v.7c0,3.1.91,4.57,3,4.57S34.87,105.07,34.87,102Z"/><path class="cls-6" d="M43.32,98.05l-3.17,2V96L44,93.34H48.1V110H43.32Z"/><path class="cls-6" d="M56.19,97.21H49.48V93.34H62.16v.49L56.38,110H51.53Z"/><rect class="cls-5" x="0.37" y="128.85" width="71.43" height="10.29"/><path class="cls-3" d="M18,134.54v-2.17h.66v2.12c0,.64.2.91.72.91s.76-.23.76-1v-2.08h.66v2.13a1.28,1.28,0,0,1-1.42,1.42A1.24,1.24,0,0,1,18,134.54Z"/><path class="cls-3" d="M21.42,133.31H22v.41a.88.88,0,0,1,.83-.46c.51,0,.87.3.87,1v1.61h-.59v-1.55c0-.39-.16-.57-.51-.57a.57.57,0,0,0-.6.62v1.5h-.59Z"/><path class="cls-3" d="M24.25,132.56a.35.35,0,0,1,.7,0,.35.35,0,0,1-.7,0Zm.06.75h.59v2.56h-.59Z"/><path class="cls-3" d="M25.61,135.16v-1.4h-.34v-.45h.34v-.56h.59v.56h.56v.45H26.2v1.34c0,.23.11.33.29.33a.63.63,0,0,0,.29-.05v.47a1,1,0,0,1-.4.07A.69.69,0,0,1,25.61,135.16Z"/><path class="cls-3" d="M27,134.62v0a1.24,1.24,0,0,1,1.27-1.32,1.16,1.16,0,0,1,1.21,1.29v.17H27.62c0,.49.27.76.71.76s.54-.14.58-.39h.58c-.09.54-.52.83-1.18.83A1.22,1.22,0,0,1,27,134.62Zm1.89-.29c0-.44-.25-.64-.62-.64a.66.66,0,0,0-.66.64Z"/><path class="cls-3" d="M29.83,134.63v0A1.19,1.19,0,0,1,31,133.26a.87.87,0,0,1,.82.45v-1.58h.59v3.74H31.8v-.43a1,1,0,0,1-.84.48A1.14,1.14,0,0,1,29.83,134.63Zm2,0v0c0-.57-.26-.84-.69-.84s-.69.3-.69.85v0c0,.56.28.83.66.83S31.82,135.18,31.82,134.61Z"/><path class="cls-3" d="M34.21,132.37h.65V134l1.34-1.59h.7L35.45,134,37,135.87h-.77l-1.35-1.63v1.63h-.65Z"/><path class="cls-3" d="M37.28,132.56a.35.35,0,0,1,.35-.35.34.34,0,0,1,.35.35.33.33,0,0,1-.35.33A.34.34,0,0,1,37.28,132.56Zm.06.75h.6v2.56h-.6Z"/><path class="cls-3" d="M38.55,133.31h.59v.41a.9.9,0,0,1,.83-.46c.51,0,.88.3.88,1v1.61h-.6v-1.55c0-.39-.15-.57-.51-.57a.57.57,0,0,0-.6.62v1.5h-.59Z"/><path class="cls-3" d="M41.31,136h.6c.05.26.24.4.63.4a.62.62,0,0,0,.71-.69v-.37a1,1,0,0,1-.83.47,1.14,1.14,0,0,1-1.14-1.22v0a1.18,1.18,0,0,1,1.15-1.26.87.87,0,0,1,.82.45v-.4h.6v2.37c0,.76-.51,1.13-1.31,1.13S41.38,136.45,41.31,136Zm2-1.43v0c0-.49-.26-.77-.69-.77s-.69.31-.69.78v0a.68.68,0,0,0,.67.76A.7.7,0,0,0,43.27,134.53Z"/><path class="cls-3" d="M44.32,134.63v0a1.19,1.19,0,0,1,1.15-1.34.87.87,0,0,1,.82.45v-1.58h.59v3.74h-.59v-.43a1,1,0,0,1-.84.48A1.14,1.14,0,0,1,44.32,134.63Zm2,0v0c0-.57-.26-.84-.69-.84s-.69.3-.69.85v0c0,.56.28.83.66.83S46.31,135.18,46.31,134.61Z"/><path class="cls-3" d="M47.34,134.62v0a1.27,1.27,0,0,1,1.32-1.32A1.25,1.25,0,0,1,50,134.57v0a1.32,1.32,0,0,1-2.63,0Zm2,0v0c0-.53-.27-.85-.71-.85s-.71.31-.71.84v0c0,.52.26.85.71.85S49.37,135.13,49.37,134.61Z"/><path class="cls-3" d="M50.43,133.31H51v.4a.87.87,0,0,1,.78-.45.73.73,0,0,1,.73.46,1,1,0,0,1,.86-.46c.47,0,.85.29.85,1v1.62h-.59v-1.58c0-.37-.16-.54-.45-.54a.55.55,0,0,0-.57.59v1.53H52v-1.58c0-.37-.16-.54-.45-.54a.55.55,0,0,0-.57.59v1.53h-.59Z"/><path class="cls-4" d="M6.91,14.86v0a2.32,2.32,0,0,1,2.34-2.46A1.86,1.86,0,0,1,11.31,14H10.4a1,1,0,0,0-1.15-1c-.84,0-1.4.66-1.4,1.73v.06c0,1.08.52,1.72,1.41,1.72a1.12,1.12,0,0,0,1.23-1h.88a1.92,1.92,0,0,1-2.11,1.75A2.21,2.21,0,0,1,6.91,14.86Z"/><path class="cls-4" d="M11.83,16.26c0-.82.79-1.11,1.8-1.11h.44V15c0-.48-.16-.71-.64-.71a.58.58,0,0,0-.67.55H12c.07-.82.72-1.16,1.51-1.16s1.4.32,1.4,1.28v2.31h-.8v-.43a1.21,1.21,0,0,1-1.07.5C12.36,17.31,11.83,17,11.83,16.26ZM14.07,16v-.35h-.42c-.62,0-1,.14-1,.57s.16.49.56.49S14.07,16.46,14.07,16Z"/><path class="cls-4" d="M15.86,16.26V14.33h-.47v-.61h.47V13h.81v.77h.78v.61h-.78v1.85c0,.31.15.45.41.45a1.1,1.1,0,0,0,.39-.06v.64a1.45,1.45,0,0,1-.55.09A.94.94,0,0,1,15.86,16.26Z"/><path class="cls-4" d="M17.85,15.52v-.06a1.71,1.71,0,0,1,1.75-1.81,1.58,1.58,0,0,1,1.66,1.77v.24H18.69c0,.66.36,1,1,1s.75-.19.81-.54h.79c-.12.74-.71,1.15-1.62,1.15A1.69,1.69,0,0,1,17.85,15.52Zm2.6-.41c0-.6-.35-.87-.85-.87a.9.9,0,0,0-.9.87Z"/><path class="cls-4" d="M21.8,17.36h.82c.07.35.34.55.87.55a.86.86,0,0,0,1-.95v-.51a1.37,1.37,0,0,1-1.15.65,1.56,1.56,0,0,1-1.56-1.68v0a1.62,1.62,0,0,1,1.58-1.73,1.21,1.21,0,0,1,1.13.61v-.54h.82V17c0,1-.7,1.55-1.79,1.55S21.9,18,21.8,17.36Zm2.7-2v-.05c0-.67-.36-1.06-.95-1.06a1,1,0,0,0-1,1.07v.06a1,1,0,0,0,.93,1A1,1,0,0,0,24.5,15.4Z"/><path class="cls-4" d="M26,15.52v-.06a1.81,1.81,0,0,1,3.62,0v.06a1.81,1.81,0,0,1-3.62,0Zm2.78,0v0c0-.73-.36-1.17-1-1.17s-1,.43-1,1.16v.05c0,.72.35,1.17,1,1.17S28.76,16.22,28.76,15.5Z"/><path class="cls-4" d="M30.28,13.72h.82v.66a1.16,1.16,0,0,1,1.14-.71v.76c-.71,0-1.14.23-1.14,1v1.83h-.82Z"/><path class="cls-4" d="M34,16.88l-1.39-3.16h.88L34.47,16l.86-2.27h.79l-1.91,4.72h-.8Z"/><path class="cls-4" d="M36.78,14.79a.52.52,0,0,1,.54-.52.51.51,0,0,1,.53.52.52.52,0,0,1-.53.53A.53.53,0,0,1,36.78,14.79Zm0,2a.54.54,0,0,1,.54-.53.53.53,0,0,1,.53.53.52.52,0,0,1-.53.53A.53.53,0,0,1,36.78,16.76Z"/><path class="cls-4" d="M40.07,12.43h1.2l1.26,3.28,1.24-3.28H45v4.81h-.89V13.61l-1.43,3.63h-.29l-1.46-3.63v3.63h-.81Z"/><path class="cls-4" d="M45.75,15.52v-.06a1.71,1.71,0,0,1,1.75-1.81,1.58,1.58,0,0,1,1.66,1.77v.24H46.59c0,.66.36,1,1,1s.74-.19.8-.54h.79c-.11.74-.71,1.15-1.61,1.15A1.69,1.69,0,0,1,45.75,15.52Zm2.61-.41c0-.6-.35-.87-.86-.87a.9.9,0,0,0-.9.87Z"/><path class="cls-4" d="M49.68,15.54v-.06a1.63,1.63,0,0,1,1.58-1.83,1.19,1.19,0,0,1,1.12.61V12.09h.82v5.15h-.82v-.59a1.32,1.32,0,0,1-1.15.66A1.56,1.56,0,0,1,49.68,15.54Zm2.73,0v-.06c0-.77-.36-1.15-.95-1.15s-1,.41-1,1.17v.06c0,.77.39,1.14.92,1.14S52.41,16.28,52.41,15.5Z"/><path class="cls-4" d="M54,12.68a.47.47,0,0,1,.49-.47.47.47,0,1,1,0,.93A.47.47,0,0,1,54,12.68Zm.09,1h.82v3.52h-.82Z"/><path class="cls-4" d="M55.8,16V13.72h.81v2.16c0,.53.22.77.69.77a.78.78,0,0,0,.82-.84V13.72h.82v3.52h-.82v-.55a1.18,1.18,0,0,1-1.11.62C56.31,17.31,55.8,16.91,55.8,16Z"/><path class="cls-4" d="M59.83,13.72h.82v.54a1.18,1.18,0,0,1,1.07-.61,1,1,0,0,1,1,.63,1.39,1.39,0,0,1,1.2-.63c.64,0,1.17.39,1.17,1.36v2.23h-.82V15.07c0-.52-.22-.74-.62-.74a.74.74,0,0,0-.78.8v2.11h-.81V15.07c0-.52-.23-.74-.63-.74a.74.74,0,0,0-.77.8v2.11h-.82Z"/></g></g></svg>