<svg xmlns="http://www.w3.org/2000/svg" viewBox="0 0 158.4 68.85"><defs><style>.cls-1{fill:#9b9696;}.cls-2{fill:#1b2023;}.cls-3{fill:none;stroke:#9b9696;stroke-width:0.5px;}.cls-4{fill:#9b9695;}</style></defs><title>award1</title><g id="Layer_2" data-name="Layer 2"><g id="Artwork"><path class="cls-1" d="M33.39,45.35h1.53a3.65,3.65,0,0,1,1.93.46,1.86,1.86,0,0,1,.87,1.69,2,2,0,0,1-1.14,1.84,2.62,2.62,0,0,1,1.29.68,1.8,1.8,0,0,1,.55,1.33,2,2,0,0,1-.84,1.78,3.35,3.35,0,0,1-2,.51H33.39Zm1.54,3.79a2.62,2.62,0,0,0,1.39-.36,1.34,1.34,0,0,0,.7-1.19,1.39,1.39,0,0,0-1-1.44,6.48,6.48,0,0,0-1.91-.2v3.19ZM35.21,53a3.11,3.11,0,0,0,2-.47,1.61,1.61,0,0,0,.43-1.21A1.35,1.35,0,0,0,37,50.12a2.6,2.6,0,0,0-1.42-.36H34.13V53Z"/><path class="cls-1" d="M38.41,53.41c.59-.56,1.09-1.08,1.52-1.57a13,13,0,0,0,1.5-2,4.13,4.13,0,0,0,.68-2,1.77,1.77,0,0,0-.48-1.3,1.72,1.72,0,0,0-1.3-.5,2.23,2.23,0,0,0-.94.27,3.19,3.19,0,0,0-.86.55v-.82a8.28,8.28,0,0,1,.88-.45,2.33,2.33,0,0,1,3.39,2.24,4.11,4.11,0,0,1-.54,1.88A11,11,0,0,1,41,51.51c-.17.21-.62.72-1.34,1.51h3.83v.66H38.41Z"/><path class="cls-1" d="M44.19,45.35h1.53a3.62,3.62,0,0,1,1.93.46,1.87,1.87,0,0,1,.88,1.69,2.06,2.06,0,0,1-1.15,1.84,2.66,2.66,0,0,1,1.3.68,1.84,1.84,0,0,1,.55,1.33,2,2,0,0,1-.84,1.78,3.38,3.38,0,0,1-2,.51H44.19Zm1.55,3.79a2.58,2.58,0,0,0,1.38-.36,1.34,1.34,0,0,0,.7-1.19,1.38,1.38,0,0,0-1-1.44,6.45,6.45,0,0,0-1.9-.2v3.19ZM46,53a3.09,3.09,0,0,0,2-.47,1.57,1.57,0,0,0,.43-1.21,1.36,1.36,0,0,0-.66-1.22,2.66,2.66,0,0,0-1.43-.36h-1.4V53Z"/><path class="cls-1" d="M53,45.39h.76l1,1.26,1,1.26c.3.42.6.87.88,1.32l2.89-3.84h.74v8.29h-.74l.08-7.38c-.32.45-.65.89-1,1.32l-1,1.3-1,1.3L53.6,46.28l.09,7.4H53Z"/><path class="cls-1" d="M63.12,48.69a1.78,1.78,0,0,0-.85.23,4.93,4.93,0,0,0-.74.52v-.68a4.71,4.71,0,0,1,.82-.48,2.24,2.24,0,0,1,.93-.19,1.52,1.52,0,0,1,1.18.45,1.81,1.81,0,0,1,.41,1.26v2.79a.56.56,0,0,0,.08.3l.11,0a.61.61,0,0,0,.22-.09l.36-.25v.6a5.5,5.5,0,0,1-.48.28,1.43,1.43,0,0,1-.5.18.45.45,0,0,1-.31-.1,1.48,1.48,0,0,1-.24-.32,4.22,4.22,0,0,1-.72.31,1.83,1.83,0,0,1-.66.11,1.46,1.46,0,0,1-1-.41,1.28,1.28,0,0,1-.44-1,1.63,1.63,0,0,1,1-1.52,4.25,4.25,0,0,1,1.92-.41l0-.35a1.44,1.44,0,0,0-.26-.9A1,1,0,0,0,63.12,48.69Zm1.1,2.11a3.43,3.43,0,0,0-1.47.31,1.2,1.2,0,0,0-.86,1.08.8.8,0,0,0,.3.66,1.15,1.15,0,0,0,.74.24,1.66,1.66,0,0,0,.65-.14,2.63,2.63,0,0,0,.64-.35Z"/><path class="cls-1" d="M66.58,48.16h.65v1.4a6,6,0,0,1,.68-.91,1.41,1.41,0,0,1,1-.49,1.56,1.56,0,0,1,1.23.65l-.45.58a.93.93,0,0,0-.9-.55,1,1,0,0,0-.66.24,2.66,2.66,0,0,0-.47.56,3.15,3.15,0,0,0-.31.54,1.53,1.53,0,0,0-.14.59v2.88h-.65Z"/><path class="cls-1" d="M70.51,45.35h.63v5.47L74,48.16h1l-3,2.68,3.51,2.83H74.34l-3.2-2.74v2.74h-.63Z"/><path class="cls-1" d="M76.13,50.78a2.61,2.61,0,0,0,.47,1.59,1.7,1.7,0,0,0,1.45.7,3,3,0,0,0,1-.2,4.63,4.63,0,0,0,.92-.46v.65l-1,.44a2.75,2.75,0,0,1-1,.21,2.33,2.33,0,0,1-1.93-.89,3.23,3.23,0,0,1-.65-2.08,2.63,2.63,0,0,1,.68-1.83,2.24,2.24,0,0,1,1.75-.75,2.11,2.11,0,0,1,1.64.66,2.49,2.49,0,0,1,.61,1.72v.24Zm3.32-.62a1.66,1.66,0,0,0-.51-1,1.48,1.48,0,0,0-1-.37,1.6,1.6,0,0,0-1.08.36,2.17,2.17,0,0,0-.63,1Z"/><path class="cls-1" d="M80.45,48.25h1.08v-1l.66-.68v1.63h1.44v.62H82.19V52.3a.85.85,0,0,0,.2.58.78.78,0,0,0,.58.21A1.65,1.65,0,0,0,83.4,53a3,3,0,0,0,.44-.16v.66a2.77,2.77,0,0,1-.48.13,2,2,0,0,1-.46.05,1.22,1.22,0,0,1-1.09-.47,2.12,2.12,0,0,1-.28-1.2v-3.2H80.45Z"/><path class="cls-1" d="M84.78,45.76h.66v1h-.66Zm0,2.42h.66v5.5h-.66Z"/><path class="cls-1" d="M87,48.21h.66V49a3.13,3.13,0,0,1,.71-.62,1.92,1.92,0,0,1,.94-.23,1.54,1.54,0,0,1,.9.27,1.78,1.78,0,0,1,.76.86,3.26,3.26,0,0,1,.16,1.16v3.23h-.65l0-2.36a6,6,0,0,0-.14-1.62,1.13,1.13,0,0,0-1.17-.89,1.63,1.63,0,0,0-.83.22,2.41,2.41,0,0,0-.68.61v4H87Z"/><path class="cls-1" d="M92.51,52.7a.55.55,0,0,1,.19-.45,3.52,3.52,0,0,1,.76-.41,1.74,1.74,0,0,1-.92-.64,1.71,1.71,0,0,1-.35-1.06,1.75,1.75,0,0,1,.73-1.57,3.17,3.17,0,0,1,1.75-.41h1.82v.56l-1.15,0a2,2,0,0,1,.46.64,1.8,1.8,0,0,1,.2.77,1.61,1.61,0,0,1-.73,1.38,7.78,7.78,0,0,1-1.36.62c-.5.19-.74.38-.74.59s.42.4,1.26.52a2.54,2.54,0,0,1,1.69.71,1.92,1.92,0,0,1,.27.46,1.44,1.44,0,0,1-.67,1.8,3,3,0,0,1-1.56.39,3.47,3.47,0,0,1-1.56-.32A1.37,1.37,0,0,1,91.8,55a1.27,1.27,0,0,1,.38-1,2,2,0,0,1,1-.48,1,1,0,0,1-.49-.29A.72.72,0,0,1,92.51,52.7ZM94.23,56a2.16,2.16,0,0,0,1-.25.91.91,0,0,0,.59-.82.92.92,0,0,0-.59-.86,2.4,2.4,0,0,0-1.1-.22,2.68,2.68,0,0,0-1.11.21.89.89,0,0,0-.63.83,1,1,0,0,0,.62.91A3,3,0,0,0,94.23,56Zm-.18-4.62A1.28,1.28,0,0,0,95,51a1.24,1.24,0,0,0,.37-.92,1.22,1.22,0,0,0-.37-.9,1.2,1.2,0,0,0-.88-.38,1.18,1.18,0,0,0-.91.39,1.28,1.28,0,0,0-.36.92,1.22,1.22,0,0,0,.35.89A1.18,1.18,0,0,0,94.05,51.34Z"/><path class="cls-1" d="M102.73,45.4h.41l3.51,8.28h-.76l-1.18-2.82H101L99.8,53.67H99Zm1.77,4.81c-.19-.42-.37-.82-.53-1.21s-.35-.81-.53-1.27-.36-.89-.51-1.3l-1.63,3.78Z"/><path class="cls-1" d="M107,48.18c.36.8.68,1.56.94,2.27s.53,1.47.77,2.26c.13-.51.3-1.08.5-1.71s.57-1.65,1-2.82h.48c.09.31.26.81.5,1.5s.41,1.19.5,1.5c.18.54.32,1,.44,1.53.15-.46.32-1,.52-1.52,0,0,.21-.54.59-1.49.24-.63.43-1.13.57-1.52h.63l-2.18,5.5h-.37l-1.47-4.53-1.56,4.53h-.32l-2.17-5.5Z"/><path class="cls-1" d="M116.54,48.69a1.78,1.78,0,0,0-.85.23,4.45,4.45,0,0,0-.73.52v-.68a4.07,4.07,0,0,1,.82-.48,2.2,2.2,0,0,1,.92-.19,1.5,1.5,0,0,1,1.18.45,1.81,1.81,0,0,1,.41,1.26v2.79a.49.49,0,0,0,.09.3l.1,0a.61.61,0,0,0,.22-.09l.37-.25,0,.6a5.5,5.5,0,0,1-.48.28,1.37,1.37,0,0,1-.5.18.46.46,0,0,1-.31-.1,1.48,1.48,0,0,1-.24-.32,4.22,4.22,0,0,1-.72.31,1.83,1.83,0,0,1-.66.11,1.47,1.47,0,0,1-1-.41,1.31,1.31,0,0,1-.44-1,1.63,1.63,0,0,1,1-1.52,4.31,4.31,0,0,1,1.92-.41l0-.35a1.44,1.44,0,0,0-.26-.9A1,1,0,0,0,116.54,48.69Zm1.1,2.11a3.43,3.43,0,0,0-1.47.31,1.2,1.2,0,0,0-.86,1.08.8.8,0,0,0,.3.66,1.15,1.15,0,0,0,.74.24A1.66,1.66,0,0,0,117,53a2.63,2.63,0,0,0,.64-.35Z"/><path class="cls-1" d="M120,48.16h.65v1.4a6,6,0,0,1,.68-.91,1.41,1.41,0,0,1,1-.49,1.53,1.53,0,0,1,1.23.65l-.45.58a.92.92,0,0,0-.9-.55,1,1,0,0,0-.66.24,2.66,2.66,0,0,0-.47.56,4,4,0,0,0-.31.54,1.53,1.53,0,0,0-.14.59v2.88H120Z"/><path class="cls-1" d="M127.5,45.4h.65v8.25h-.65v-.31a7.25,7.25,0,0,1-.74.26,2.26,2.26,0,0,1-.7.11,2.55,2.55,0,0,1-1.87-.79,2.6,2.6,0,0,1-.79-1.87,2.92,2.92,0,0,1,.78-2,2.49,2.49,0,0,1,1.94-.85,3.27,3.27,0,0,1,.7.08,6.94,6.94,0,0,1,.68.21Zm0,3.75a5.87,5.87,0,0,0-.65-.26,2.22,2.22,0,0,0-.65-.11,2.07,2.07,0,0,0-1.48.6,2,2,0,0,0-.63,1.46,2.28,2.28,0,0,0,.61,1.59,1.9,1.9,0,0,0,1.49.69,2.28,2.28,0,0,0,.66-.11,3.71,3.71,0,0,0,.65-.27Z"/><path class="cls-1" d="M129.41,52.36a2.1,2.1,0,0,0,.71.54,2,2,0,0,0,.86.19,1.23,1.23,0,0,0,.73-.2.74.74,0,0,0,.33-.65c0-.37-.42-.75-1.26-1.15s-1.26-.89-1.26-1.48a1.26,1.26,0,0,1,.51-1.06,2,2,0,0,1,1.22-.39,2.88,2.88,0,0,1,.71.09,1.5,1.5,0,0,1,.6.27v.74a2.78,2.78,0,0,0-.61-.4,1.72,1.72,0,0,0-.68-.14,1.23,1.23,0,0,0-.73.22.67.67,0,0,0-.33.6c0,.36.41.73,1.24,1.13s1.25.92,1.25,1.56a1.32,1.32,0,0,1-.5,1.07,1.79,1.79,0,0,1-1.19.41,2.67,2.67,0,0,1-.82-.14,3.56,3.56,0,0,1-.78-.39Z"/><path class="cls-1" d="M136.3,53.41c.58-.56,1.09-1.08,1.52-1.57a14.48,14.48,0,0,0,1.5-2,4.1,4.1,0,0,0,.67-2,1.77,1.77,0,0,0-.48-1.3,1.7,1.7,0,0,0-1.29-.5,2.23,2.23,0,0,0-.94.27,3.19,3.19,0,0,0-.86.55v-.82a7.43,7.43,0,0,1,.87-.45,2.53,2.53,0,0,1,1-.21,2.25,2.25,0,0,1,2.43,2.45,4.21,4.21,0,0,1-.53,1.88,11.65,11.65,0,0,1-1.22,1.79c-.17.21-.62.72-1.34,1.51h3.83v.66H136.3Z"/><path class="cls-1" d="M144.65,45.33a2.2,2.2,0,0,1,2.08,1.53,7,7,0,0,1,.5,2.77,6,6,0,0,1-.54,2.66,2.21,2.21,0,0,1-4.17-.13,6.62,6.62,0,0,1-.54-2.75,5.71,5.71,0,0,1,.59-2.64A2.27,2.27,0,0,1,144.65,45.33Zm0,7.73c.7,0,1.21-.43,1.55-1.29a6,6,0,0,0,.36-2.17,6.56,6.56,0,0,0-.35-2.25c-.34-.91-.86-1.37-1.57-1.37s-1.19.44-1.53,1.31a6,6,0,0,0-.37,2.18,6.4,6.4,0,0,0,.36,2.23C143.41,52.61,143.93,53.06,144.62,53.06Z"/><path class="cls-1" d="M150.6,45.27H151v8.37h-.75V46.32l-2.1,1.85-.26-.58Z"/><path class="cls-1" d="M153.18,45.4h5.22l-3.53,8.36-.71-.31L157.4,46h-4.22Z"/><path class="cls-2" d="M32.85,60.51l2.55,7q.39-1.23.78-2.37c.22-.62.51-1.4.86-2.34.22-.59.52-1.37.9-2.33h.36c.19.53.49,1.29.88,2.3s.69,1.8.9,2.37q.48,1.32.78,2.37c.25-.82.51-1.61.79-2.37.08-.2.38-1,.89-2.33.41-1.09.71-1.87.88-2.34h.82c-.19.46-.56,1.38-1.1,2.76L42.05,66,41,68.79h-.29l-1-2.78c-.26-.7-.53-1.39-.79-2.09s-.54-1.55-.69-2.13l-2.6,7h-.34L32,60.51Z"/><path class="cls-2" d="M45.25,60.9h.66v1h-.66Zm0,2.42h.66v5.49h-.66Z"/><path class="cls-2" d="M47.45,63.34h.66v.81a2.72,2.72,0,0,1,.71-.62,1.79,1.79,0,0,1,.93-.24,1.5,1.5,0,0,1,.9.27,1.79,1.79,0,0,1,.76.87,3.19,3.19,0,0,1,.17,1.16v3.22h-.66l0-2.36a6.4,6.4,0,0,0-.14-1.61A1.13,1.13,0,0,0,49.65,64a1.69,1.69,0,0,0-.84.21,2.43,2.43,0,0,0-.67.62v4h-.69Z"/><path class="cls-2" d="M53.09,63.34h.65v.81a3.09,3.09,0,0,1,.71-.62,1.85,1.85,0,0,1,.94-.24,1.54,1.54,0,0,1,.9.27,1.85,1.85,0,0,1,.76.87,3.22,3.22,0,0,1,.16,1.16v3.22h-.65l0-2.36a6,6,0,0,0-.14-1.61A1.12,1.12,0,0,0,55.28,64a1.63,1.63,0,0,0-.83.21,2.3,2.3,0,0,0-.67.62v4h-.69Z"/><path class="cls-2" d="M58.92,65.91a2.62,2.62,0,0,0,.47,1.6,1.72,1.72,0,0,0,1.45.7,2.92,2.92,0,0,0,1-.2,4.69,4.69,0,0,0,.93-.46v.65l-1,.44a2.75,2.75,0,0,1-1,.21A2.36,2.36,0,0,1,58.86,68a3.21,3.21,0,0,1-.65-2.08,2.6,2.6,0,0,1,.68-1.83,2.25,2.25,0,0,1,1.75-.76,2.12,2.12,0,0,1,1.64.67,2.45,2.45,0,0,1,.6,1.72v.23Zm3.32-.62a1.69,1.69,0,0,0-.51-1,1.54,1.54,0,0,0-1.06-.37,1.6,1.6,0,0,0-1.07.37,2.19,2.19,0,0,0-.63,1Z"/><path class="cls-2" d="M64.18,63.29h.66V64.7a5.64,5.64,0,0,1,.67-.92,1.45,1.45,0,0,1,1-.49,1.51,1.51,0,0,1,1.23.66l-.45.57a.94.94,0,0,0-.9-.55,1,1,0,0,0-.66.25,2.7,2.7,0,0,0-.47.56,3.29,3.29,0,0,0-.3.53,1.38,1.38,0,0,0-.14.6v2.88h-.66Z"/><line class="cls-3" x1="34.14" y1="32.41" x2="45.89" y2="32.41"/><path d="M42.72,14.21c0-1.92-1.31-3.13-3.27-3.45a3.21,3.21,0,0,0,2.2-3,3.11,3.11,0,0,0-1.31-2.79,5.18,5.18,0,0,0-3.23-.71H34V18.15h3.73a5,5,0,0,0,3.48-.91,3.7,3.7,0,0,0,1.47-3Zm-1.17.06a2.59,2.59,0,0,1-1.21,2.32,5.24,5.24,0,0,1-2.93.57H35.13V11.4h2.28a5.25,5.25,0,0,1,2.93.59,2.5,2.5,0,0,1,1.21,2.28Zm-1-6.52a2.45,2.45,0,0,1-1.11,2.18,4.18,4.18,0,0,1-2.43.5H35.13V5.2h2.08a4.21,4.21,0,0,1,2.22.43,2.19,2.19,0,0,1,1.11,2.12Zm13.19,9.39H46.16l4-3.94c.7-.71,3-2.63,3-5.09A4.06,4.06,0,0,0,48.78,4a4.61,4.61,0,0,0-4.24,2.93l.81.5A3.79,3.79,0,0,1,48.78,5a3.06,3.06,0,0,1,3.28,3.17c0,1.82-1.46,3.33-2.37,4.24l-5,4.95.21.81h8.88v-1Zm11.35-2.93c0-1.92-1.31-3.13-3.27-3.45a3.21,3.21,0,0,0,2.2-3A3.11,3.11,0,0,0,62.7,4.92a5.18,5.18,0,0,0-3.23-.71H56.4V18.15h3.73a5,5,0,0,0,3.48-.91,3.67,3.67,0,0,0,1.47-3Zm-1.17.06a2.59,2.59,0,0,1-1.21,2.32,5.24,5.24,0,0,1-2.93.57H57.49V11.4h2.28A5.25,5.25,0,0,1,62.7,12a2.5,2.5,0,0,1,1.21,2.28Zm-1-6.52a2.43,2.43,0,0,1-1.11,2.18,4.14,4.14,0,0,1-2.42.5H57.49V5.2h2.08a4.19,4.19,0,0,1,2.22.43A2.17,2.17,0,0,1,62.9,7.75ZM85.83,4.21H84.55l-4.8,11.9L75,4.21H73.71L72.29,18.15h1.09L74.53,6l5.18,12.36h.1L85,6.05l1.19,12.1h1.09L85.83,4.21Zm11,8.38a3.8,3.8,0,0,0-.91-2.92A3.57,3.57,0,0,0,93.1,8.61a5.73,5.73,0,0,0-3.13,1l.4.77a5.09,5.09,0,0,1,2.77-.81,2.41,2.41,0,0,1,2.62,2.57v.5l-2.56.1c-2.53.11-3.74,1.22-3.74,2.83a2.9,2.9,0,0,0,3.13,2.83,4.08,4.08,0,0,0,3.17-1.51v1.31h1.07V12.59Zm-1.07,3.13a3.57,3.57,0,0,1-3,1.72,2,2,0,0,1-2.28-1.92c0-1,.63-1.86,2.59-2l2.66-.16v2.32Zm8.95-7a3.14,3.14,0,0,0-1-.15,2.47,2.47,0,0,0-2.38,1.92V8.78h-1v9.37h1v-5a4.43,4.43,0,0,1,.66-2.63,2.06,2.06,0,0,1,1.62-.85,2.71,2.71,0,0,1,1,.17l.1-1Zm5.35,3.59,3.84-3.57h-1.31L108.08,13V4.21h-1V18.15h1v-4L109.35,13l3.84,5.15h1.31l-4.44-5.8Zm14,.65a4.18,4.18,0,0,0-4.24-4.39,4.59,4.59,0,0,0-4.55,4.85c0,2.87,1.76,4.89,4.49,4.89a5.1,5.1,0,0,0,3.89-1.41l-.5-.75a4.78,4.78,0,0,1-3.29,1.21c-2.12,0-3.38-1.47-3.48-3.7H124a5.77,5.77,0,0,0,.06-.7Zm-7.64-.2a3.33,3.33,0,0,1,3.34-3.28A3.26,3.26,0,0,1,123,12.8Zm14.2,4.34a2,2,0,0,1-1,.26c-1.25,0-1.37-1.23-1.37-2.26V9.77h2.38V8.82H128.3v-3h-1.07v3h-1.42v.95h1.42v4.74a6.16,6.16,0,0,0,.34,2.83,1.84,1.84,0,0,0,1.78,1,2.93,2.93,0,0,0,1.41-.3l-.1-.91Zm3.68-8.36h-1.05v9.37h1.05V8.78Zm11.13,3.77c0-2.22-.63-3.94-3.32-3.94a3.29,3.29,0,0,0-3,1.9V8.78h-1.05v9.37h1.05V13.5c0-2.22,1-4,3-4s2.29,1.56,2.29,3.07v5.56h1.07v-5.6Zm12-3.77h-1.07v1.77a3.92,3.92,0,0,0-3.53-1.94,4.54,4.54,0,0,0-4.59,4.77,4.54,4.54,0,0,0,4.59,4.77,3.84,3.84,0,0,0,3.53-2v.69a5.51,5.51,0,0,1-.8,3.19,3.46,3.46,0,0,1-2.83,1.21A5.5,5.5,0,0,1,149.34,20l-.6.8a6.12,6.12,0,0,0,3.94,1.42,4.42,4.42,0,0,0,4-2,7.47,7.47,0,0,0,.76-4V8.78Zm-1,4.58c0,2.12-1.21,3.84-3.53,3.84s-3.54-1.72-3.54-3.84,1.22-3.82,3.54-3.82,3.53,1.7,3.53,3.82Z"/><path d="M134.68,5.44a.87.87,0,1,0-.87.87.86.86,0,0,0,.87-.87Z"/><path class="cls-4" d="M10.16,11a2.22,2.22,0,1,1,2.21,2.21A2.21,2.21,0,0,1,10.16,11Z"/><path class="cls-4" d="M22.9,11a1,1,0,1,1-1-1,1,1,0,0,1,1,1Z"/><path class="cls-4" d="M20,17.63a1,1,0,1,1-1-1,1,1,0,0,1,1,1Z"/><path class="cls-4" d="M19,3.45a1,1,0,1,1-1,1,1,1,0,0,1,1-1Z"/><path class="cls-4" d="M13.85,1.48A1.48,1.48,0,1,1,12.37,0a1.48,1.48,0,0,1,1.48,1.48Z"/><path class="cls-4" d="M13.85,20.59a1.48,1.48,0,1,1-1.48-1.47,1.48,1.48,0,0,1,1.48,1.47Z"/><path class="cls-4" d="M5.91,11a3,3,0,1,1-3-3,3,3,0,0,1,3,3Z"/><path class="cls-4" d="M8.61,4.44A2.22,2.22,0,1,1,6.39,2.22,2.22,2.22,0,0,1,8.61,4.44Z"/><path class="cls-4" d="M6.39,15.42a2.22,2.22,0,1,1-2.21,2.21,2.21,2.21,0,0,1,2.21-2.21Z"/></g></g></svg>