<svg xmlns="http://www.w3.org/2000/svg" viewBox="0 0 157.48 71.69"><defs><style>.cls-1{fill:#9b9696;stroke-miterlimit:10;stroke-width:0.25px;}.cls-1,.cls-3{stroke:#9b9696;}.cls-2{fill:#1b2023;}.cls-3{fill:none;stroke-width:0.5px;}.cls-4{fill:#9b9695;}</style></defs><title>award4</title><g id="Layer_2" data-name="Layer 2"><g id="Artwork"><path class="cls-1" d="M32.39,45.35h6.5V46H36v7.71h-.72V46H32.39Z"/><path class="cls-1" d="M42.11,48.16a2.5,2.5,0,0,1,1.85.78,2.58,2.58,0,0,1,.77,1.88A3,3,0,0,1,44,52.88a2.51,2.51,0,0,1-2,.82,2.47,2.47,0,0,1-1.93-.82,3,3,0,0,1-.74-2,2.58,2.58,0,0,1,.78-1.94A2.74,2.74,0,0,1,42.11,48.16ZM42,53.1a1.86,1.86,0,0,0,1.49-.62,2.28,2.28,0,0,0,.55-1.59,2.19,2.19,0,0,0-.55-1.55,2.1,2.1,0,0,0-3,0A2.22,2.22,0,0,0,40,50.89a2.32,2.32,0,0,0,.54,1.59A1.84,1.84,0,0,0,42,53.1Z"/><path class="cls-1" d="M46.05,48.19h.62v.31a2.61,2.61,0,0,1,.64-.26,3,3,0,0,1,.7-.08,2.67,2.67,0,0,1,2,.77,2.56,2.56,0,0,1,.8,1.92,2.91,2.91,0,0,1-.72,2,2.57,2.57,0,0,1-2,.78,3.35,3.35,0,0,1-.7-.1,3.54,3.54,0,0,1-.68-.24V56.5h-.62ZM48,53.06a2.1,2.1,0,0,0,1.49-.57A1.88,1.88,0,0,0,50.07,51a2.29,2.29,0,0,0-.6-1.62,2.06,2.06,0,0,0-1.58-.64,2.5,2.5,0,0,0-.62.09,5.62,5.62,0,0,0-.6.2V52.7a3.65,3.65,0,0,0,.64.24A2.44,2.44,0,0,0,48,53.06Z"/><path class="cls-1" d="M54.62,52.4a4.57,4.57,0,0,0,.79.45,2.31,2.31,0,0,0,.89.17,2.17,2.17,0,0,0,1.54-.53,1.91,1.91,0,0,0,.58-1.5,1.78,1.78,0,0,0-.61-1.42,2.25,2.25,0,0,0-1.53-.52H56l-.6.1V45.4h3.34V46H56v2.41h.09a3.36,3.36,0,0,1,2.15.63,2.49,2.49,0,0,1,.86,2,2.43,2.43,0,0,1-.8,1.83,2.63,2.63,0,0,1-1.89.76,3.54,3.54,0,0,1-.9-.12,6.38,6.38,0,0,1-.92-.34Z"/><path class="cls-1" d="M63.35,45.33a2.19,2.19,0,0,1,2.08,1.53,6.82,6.82,0,0,1,.51,2.77,6,6,0,0,1-.54,2.66,2.21,2.21,0,0,1-4.18-.13,6.62,6.62,0,0,1-.53-2.75,5.7,5.7,0,0,1,.58-2.64A2.27,2.27,0,0,1,63.35,45.33Zm0,7.73c.69,0,1.21-.43,1.54-1.29a6,6,0,0,0,.36-2.17,6.33,6.33,0,0,0-.35-2.25C64.55,46.44,64,46,63.32,46s-1.19.44-1.54,1.31a6.19,6.19,0,0,0-.37,2.18,6.4,6.4,0,0,0,.36,2.23C62.12,52.61,62.63,53.06,63.33,53.06Z"/><path class="cls-2" d="M69.74,45.35h.73V50a3.41,3.41,0,0,0,.61,2.13,2.36,2.36,0,0,0,2,.88,2.28,2.28,0,0,0,2-.91,3.67,3.67,0,0,0,.58-2.19V45.35h.76v4.42a4.51,4.51,0,0,1-.77,2.79A3.08,3.08,0,0,1,73,53.7a3,3,0,0,1-2.48-1.09,4.09,4.09,0,0,1-.8-2.65Z"/><path class="cls-2" d="M78.07,45.35h.75v4l3.81-4h1l-4,4.15,4.38,4.18h-1l-4.07-4v4h-.75Z"/><path class="cls-2" d="M87.25,45.35h1.53a3.6,3.6,0,0,1,1.93.46,1.85,1.85,0,0,1,.88,1.69,2,2,0,0,1-1.15,1.84,2.66,2.66,0,0,1,1.3.68,1.8,1.8,0,0,1,.55,1.33,2,2,0,0,1-.84,1.78,3.36,3.36,0,0,1-2,.51H87.25Zm1.55,3.79a2.58,2.58,0,0,0,1.38-.36,1.35,1.35,0,0,0,.71-1.19,1.39,1.39,0,0,0-1-1.44A6.4,6.4,0,0,0,88,46v3.19ZM89.07,53a3.09,3.09,0,0,0,2-.47,1.57,1.57,0,0,0,.43-1.21,1.36,1.36,0,0,0-.66-1.22,2.64,2.64,0,0,0-1.43-.36H88V53Z"/><path class="cls-2" d="M92.76,53.41c.58-.56,1.09-1.08,1.52-1.57a13.59,13.59,0,0,0,1.49-2,4,4,0,0,0,.68-2,1.77,1.77,0,0,0-.48-1.3,1.72,1.72,0,0,0-1.3-.5,2.27,2.27,0,0,0-.94.27,3.36,3.36,0,0,0-.86.55v-.82a8.28,8.28,0,0,1,.88-.45,2.53,2.53,0,0,1,1-.21,2.43,2.43,0,0,1,1.78.65,2.47,2.47,0,0,1,.65,1.8,4.11,4.11,0,0,1-.54,1.88,10.86,10.86,0,0,1-1.21,1.79c-.17.21-.62.72-1.35,1.51h3.84v.66H92.76Z"/><path class="cls-2" d="M99,45.35h1.53a3.6,3.6,0,0,1,1.93.46,1.85,1.85,0,0,1,.88,1.69,2,2,0,0,1-1.15,1.84,2.62,2.62,0,0,1,1.3.68,1.8,1.8,0,0,1,.55,1.33,2,2,0,0,1-.84,1.78,3.35,3.35,0,0,1-2,.51H99Zm1.55,3.79a2.58,2.58,0,0,0,1.38-.36,1.35,1.35,0,0,0,.71-1.19,1.39,1.39,0,0,0-1-1.44,6.4,6.4,0,0,0-1.9-.2v3.19Zm.28,3.88a3.13,3.13,0,0,0,2-.47,1.61,1.61,0,0,0,.43-1.21,1.35,1.35,0,0,0-.67-1.22,2.64,2.64,0,0,0-1.43-.36h-1.4V53Z"/><path class="cls-2" d="M107.75,48.21h.66l0,.55a5.11,5.11,0,0,1,.5-.37,1.85,1.85,0,0,1,1-.25,1.54,1.54,0,0,1,.9.25,3.22,3.22,0,0,1,.63.7,3.55,3.55,0,0,1,.75-.68,1.78,1.78,0,0,1,1-.27,1.71,1.71,0,0,1,1.17.42,2,2,0,0,1,.65,1.11,4,4,0,0,1,.11.73c0,.26,0,.55,0,.86l0,2.42h-.64v-3.1a2.2,2.2,0,0,0-.29-1.23,1.22,1.22,0,0,0-1.11-.54,1.36,1.36,0,0,0-.73.19,2.37,2.37,0,0,0-.6.59l.06.65c0,.21,0,.43,0,.66l0,2.78h-.67V50.32a1.63,1.63,0,0,0-.37-1.1,1.28,1.28,0,0,0-1-.43,1.3,1.3,0,0,0-.56.13,2.64,2.64,0,0,0-.69.53v4.23h-.68Z"/><path class="cls-2" d="M117.94,48.69a1.78,1.78,0,0,0-.85.23,4.92,4.92,0,0,0-.73.52v-.68a4.07,4.07,0,0,1,.82-.48,2.23,2.23,0,0,1,.92-.19,1.54,1.54,0,0,1,1.19.45,1.85,1.85,0,0,1,.41,1.26v2.79a.48.48,0,0,0,.08.3l.1,0a.61.61,0,0,0,.22-.09l.37-.25v.6l-.48.28a1.46,1.46,0,0,1-.51.18.48.48,0,0,1-.31-.1,1.48,1.48,0,0,1-.24-.32,4.52,4.52,0,0,1-.71.31,1.92,1.92,0,0,1-.67.11,1.47,1.47,0,0,1-1-.41,1.31,1.31,0,0,1-.44-1,1.63,1.63,0,0,1,1-1.52,4.32,4.32,0,0,1,1.93-.41l0-.35a1.38,1.38,0,0,0-.26-.9A1,1,0,0,0,117.94,48.69ZM119,50.8a3.38,3.38,0,0,0-1.46.31,1.2,1.2,0,0,0-.87,1.08.81.81,0,0,0,.31.66,1.13,1.13,0,0,0,.73.24,1.62,1.62,0,0,0,.65-.14,2.63,2.63,0,0,0,.64-.35Z"/><path class="cls-2" d="M121.4,48.16h.66v1.4a5.34,5.34,0,0,1,.68-.91,1.39,1.39,0,0,1,1-.49,1.53,1.53,0,0,1,1.23.65l-.44.58a.94.94,0,0,0-.9-.55,1,1,0,0,0-.67.24,3,3,0,0,0-.47.56,3.83,3.83,0,0,0-.3.54,1.37,1.37,0,0,0-.14.59v2.88h-.66Z"/><path class="cls-2" d="M128.83,49.06a5.62,5.62,0,0,0-.67-.21,2.83,2.83,0,0,0-.63-.07,1.76,1.76,0,0,0-1.39.61,2.19,2.19,0,0,0-.54,1.49,2.4,2.4,0,0,0,.5,1.52,1.76,1.76,0,0,0,1.42.68,3.79,3.79,0,0,0,.88-.11l.51-.17v.65l-.75.18a3.67,3.67,0,0,1-.61,0,2.56,2.56,0,0,1-1.9-.78,2.59,2.59,0,0,1-.76-1.91,2.92,2.92,0,0,1,.72-2,2.54,2.54,0,0,1,2-.79,2.41,2.41,0,0,1,.64.09,6,6,0,0,1,.61.23Z"/><path class="cls-2" d="M132.08,48.16a2.5,2.5,0,0,1,1.85.78,2.58,2.58,0,0,1,.77,1.88,3,3,0,0,1-.74,2.06,2.73,2.73,0,0,1-3.9,0,3,3,0,0,1-.74-2,2.58,2.58,0,0,1,.78-1.94A2.76,2.76,0,0,1,132.08,48.16ZM132,53.1a1.86,1.86,0,0,0,1.49-.62,2.28,2.28,0,0,0,.55-1.59,2.19,2.19,0,0,0-.55-1.55,1.88,1.88,0,0,0-1.49-.61,1.91,1.91,0,0,0-1.47.61,2.22,2.22,0,0,0-.56,1.55,2.32,2.32,0,0,0,.54,1.59A1.86,1.86,0,0,0,132,53.1Z"/><path class="cls-2" d="M135.75,48.21h.67v.55c.21-.17.38-.29.5-.37a1.86,1.86,0,0,1,1-.25,1.51,1.51,0,0,1,.89.25,3,3,0,0,1,.63.7,3.55,3.55,0,0,1,.75-.68,1.84,1.84,0,0,1,1-.27,1.76,1.76,0,0,1,1.18.42,2.06,2.06,0,0,1,.64,1.11,3.29,3.29,0,0,1,.11.73c0,.26,0,.55,0,.86l0,2.42h-.63v-3.1a2.19,2.19,0,0,0-.3-1.23,1.22,1.22,0,0,0-1.11-.54,1.36,1.36,0,0,0-.73.19,2.37,2.37,0,0,0-.6.59l.06.65c0,.21,0,.43,0,.66l0,2.78h-.68V50.32a1.67,1.67,0,0,0-.36-1.1,1.39,1.39,0,0,0-1.59-.3,2.64,2.64,0,0,0-.69.53v4.23h-.68Z"/><path class="cls-2" d="M144.46,48.21h.67v.55c.21-.17.38-.29.5-.37a1.88,1.88,0,0,1,1-.25,1.51,1.51,0,0,1,.89.25,2.78,2.78,0,0,1,.63.7,3.55,3.55,0,0,1,.75-.68,1.84,1.84,0,0,1,1-.27,1.76,1.76,0,0,1,1.18.42,2.06,2.06,0,0,1,.64,1.11,4,4,0,0,1,.12.73c0,.26,0,.55,0,.86l0,2.42h-.63v-3.1a2.28,2.28,0,0,0-.29-1.23,1.24,1.24,0,0,0-1.11-.54A1.37,1.37,0,0,0,149,49a2.54,2.54,0,0,0-.6.59c0,.22.05.44.06.65s0,.43,0,.66l0,2.78h-.68V50.32a1.67,1.67,0,0,0-.36-1.1,1.3,1.3,0,0,0-1-.43,1.34,1.34,0,0,0-.56.13,2.64,2.64,0,0,0-.69.53v4.23h-.68Z"/><path class="cls-2" d="M152.94,52.36a2.06,2.06,0,0,0,.7.54,2,2,0,0,0,.87.19,1.18,1.18,0,0,0,.72-.2.73.73,0,0,0,.34-.65c0-.37-.42-.75-1.26-1.15S153,50.2,153,49.61a1.24,1.24,0,0,1,.52-1.06,2,2,0,0,1,1.22-.39,2.8,2.8,0,0,1,.7.09,1.38,1.38,0,0,1,.6.27v.74a2.56,2.56,0,0,0-.61-.4,1.67,1.67,0,0,0-.67-.14,1.26,1.26,0,0,0-.74.22.67.67,0,0,0-.33.6c0,.36.42.73,1.25,1.13s1.24.92,1.24,1.56a1.29,1.29,0,0,1-.5,1.07,1.79,1.79,0,0,1-1.18.41,2.73,2.73,0,0,1-.83-.14,3.32,3.32,0,0,1-.77-.4Z"/><path class="cls-2" d="M34.67,63.82a1.91,1.91,0,0,0-.85.23,4.61,4.61,0,0,0-.73.53v-.69a5.35,5.35,0,0,1,.82-.48,2.37,2.37,0,0,1,.92-.19,1.51,1.51,0,0,1,1.18.46,1.76,1.76,0,0,1,.41,1.25v2.8a.53.53,0,0,0,.09.3l.1,0a.61.61,0,0,0,.22-.09l.37-.24,0,.6-.48.27a1.26,1.26,0,0,1-.5.19.47.47,0,0,1-.31-.11,1.19,1.19,0,0,1-.24-.31,6.79,6.79,0,0,1-.72.31,2.08,2.08,0,0,1-.66.11,1.52,1.52,0,0,1-1-.41,1.33,1.33,0,0,1-.44-1,1.62,1.62,0,0,1,1-1.51,4.19,4.19,0,0,1,1.93-.41l0-.36a1.44,1.44,0,0,0-.26-.9A1,1,0,0,0,34.67,63.82Zm1.1,2.12a3.5,3.5,0,0,0-1.46.3c-.58.26-.87.62-.87,1.09a.8.8,0,0,0,.3.66,1.17,1.17,0,0,0,.74.24,1.81,1.81,0,0,0,.65-.14,3,3,0,0,0,.64-.35Z"/><path class="cls-2" d="M37.94,67.84a.63.63,0,0,1,.19-.46,4.51,4.51,0,0,1,.76-.41,1.65,1.65,0,0,1-.91-.63,1.94,1.94,0,0,1,.37-2.64,3.19,3.19,0,0,1,1.75-.41h1.82v.57l-1.15,0a2,2,0,0,1,.47.64,1.89,1.89,0,0,1,.19.76,1.6,1.6,0,0,1-.73,1.39,9.16,9.16,0,0,1-1.36.62c-.49.18-.74.38-.74.58s.42.41,1.26.52a2.62,2.62,0,0,1,1.7.71,2.09,2.09,0,0,1,.26.46,1.31,1.31,0,0,1,.1.5,1.45,1.45,0,0,1-.77,1.3,2.92,2.92,0,0,1-1.56.4A3.26,3.26,0,0,1,38,71.36a1.36,1.36,0,0,1-.81-1.27,1.29,1.29,0,0,1,.38-1,2.11,2.11,0,0,1,1-.49.86.86,0,0,1-.49-.29A.67.67,0,0,1,37.94,67.84Zm1.72,3.25a2.27,2.27,0,0,0,1-.24.93.93,0,0,0,.59-.82,1,1,0,0,0-.59-.87,2.52,2.52,0,0,0-1.09-.22,2.76,2.76,0,0,0-1.12.21.9.9,0,0,0-.63.83.94.94,0,0,0,.62.91A2.82,2.82,0,0,0,39.66,71.09Zm-.18-4.62a1.28,1.28,0,0,0,.92-.36,1.29,1.29,0,0,0,0-1.81,1.16,1.16,0,0,0-.88-.39,1.21,1.21,0,0,0-.91.39,1.32,1.32,0,0,0-.36.93,1.24,1.24,0,0,0,.35.88A1.19,1.19,0,0,0,39.48,66.47Z"/><path class="cls-2" d="M43,65.91a2.62,2.62,0,0,0,.47,1.6,1.74,1.74,0,0,0,1.45.7,3,3,0,0,0,1-.2,4.63,4.63,0,0,0,.92-.46v.65l-1,.44a2.74,2.74,0,0,1-1,.21A2.33,2.33,0,0,1,42.93,68a3.22,3.22,0,0,1-.66-2.08A2.64,2.64,0,0,1,43,64.05a2.26,2.26,0,0,1,1.75-.76,2.12,2.12,0,0,1,1.65.67,2.45,2.45,0,0,1,.6,1.72v.23Zm3.33-.62a1.69,1.69,0,0,0-.51-1,1.54,1.54,0,0,0-1.06-.37,1.61,1.61,0,0,0-1.08.37,2.19,2.19,0,0,0-.63,1Z"/><path class="cls-2" d="M48.2,63.34h.65v.81a2.91,2.91,0,0,1,.72-.62,1.79,1.79,0,0,1,.93-.24,1.5,1.5,0,0,1,.9.27,1.79,1.79,0,0,1,.76.87,3.19,3.19,0,0,1,.17,1.16v3.22h-.66l0-2.36a6.4,6.4,0,0,0-.14-1.61A1.13,1.13,0,0,0,50.4,64a1.69,1.69,0,0,0-.84.21,2.43,2.43,0,0,0-.67.62v4H48.2Z"/><path class="cls-2" d="M57.33,64.19c-.23-.08-.46-.15-.67-.2a2.79,2.79,0,0,0-.63-.08,1.76,1.76,0,0,0-1.39.62A2.16,2.16,0,0,0,54.1,66a2.33,2.33,0,0,0,.51,1.52,1.71,1.71,0,0,0,1.41.69,3.72,3.72,0,0,0,.88-.11l.51-.17v.64q-.49.14-.75.18a2.8,2.8,0,0,1-.6,0,2.54,2.54,0,0,1-1.9-.77,2.6,2.6,0,0,1-.77-1.92,2.88,2.88,0,0,1,.72-2,2.55,2.55,0,0,1,2-.8,2.43,2.43,0,0,1,.64.1,6,6,0,0,1,.61.23Z"/><path class="cls-2" d="M59.45,67.57l-2.13-4.25h.73L59.82,67A23.1,23.1,0,0,1,61,64.69c.37-.68.62-1.14.73-1.37h.72L58,71.69h-.74Z"/><path class="cls-2" d="M65.26,68.54A21.77,21.77,0,0,0,66.78,67a13.59,13.59,0,0,0,1.49-2A4,4,0,0,0,69,63a1.78,1.78,0,0,0-.48-1.3,1.72,1.72,0,0,0-1.3-.49,2.39,2.39,0,0,0-.94.26,3.13,3.13,0,0,0-.85.56v-.82c.36-.21.65-.36.87-.46a2.53,2.53,0,0,1,1-.21,2.4,2.4,0,0,1,1.78.66A2.44,2.44,0,0,1,69.64,63a4.14,4.14,0,0,1-.54,1.89,11.3,11.3,0,0,1-1.21,1.79c-.17.21-.62.71-1.35,1.51h3.84v.65H65.26Z"/><path class="cls-2" d="M73.61,60.47A2.2,2.2,0,0,1,75.69,62a6.93,6.93,0,0,1,.5,2.77,5.9,5.9,0,0,1-.54,2.65,2.2,2.2,0,0,1-4.17-.13,6.57,6.57,0,0,1-.54-2.74,5.65,5.65,0,0,1,.59-2.65A2.26,2.26,0,0,1,73.61,60.47Zm0,7.72c.7,0,1.21-.43,1.55-1.28a6.07,6.07,0,0,0,.36-2.18,6.54,6.54,0,0,0-.35-2.24c-.34-.91-.86-1.37-1.57-1.37s-1.19.44-1.53,1.31a5.91,5.91,0,0,0-.37,2.17A6.42,6.42,0,0,0,72,66.84C72.37,67.74,72.89,68.19,73.58,68.19Z"/><path class="cls-2" d="M79.56,60.41H80v8.37h-.75V61.45L77.13,63.3l-.25-.58Z"/><path class="cls-2" d="M82.59,62.77a2.32,2.32,0,0,1,.61-1.63,2,2,0,0,1,1.57-.67,2.31,2.31,0,0,1,1.58.61,2,2,0,0,1,.69,1.5,2.2,2.2,0,0,1-.24,1.07,3.28,3.28,0,0,1-.79.87,2.68,2.68,0,0,1,.86.81,1.87,1.87,0,0,1,.32,1.07,2.36,2.36,0,0,1-.68,1.77,2.39,2.39,0,0,1-1.76.68,2.22,2.22,0,0,1-1.6-.69,2.15,2.15,0,0,1-.69-1.58,2.35,2.35,0,0,1,.18-.94,4.14,4.14,0,0,1,1-1.14,3.26,3.26,0,0,1-.72-.74A1.76,1.76,0,0,1,82.59,62.77Zm2.24,5.41a1.65,1.65,0,0,0,1.2-.46,1.6,1.6,0,0,0,.47-1.19,1.64,1.64,0,0,0-1.68-1.68,1.57,1.57,0,0,0-1.18.49,1.66,1.66,0,0,0-.48,1.2,1.57,1.57,0,0,0,.47,1.19A1.65,1.65,0,0,0,84.83,68.18Zm-1.55-5.44a1.33,1.33,0,0,0,.46,1,1.54,1.54,0,0,0,1.09.41,1.42,1.42,0,0,0,1.09-.45,1.61,1.61,0,0,0,.42-1.12,1.44,1.44,0,0,0-.45-1.08,1.56,1.56,0,0,0-2.19,0A1.69,1.69,0,0,0,83.28,62.74Z"/><line class="cls-3" x1="34.14" y1="32.41" x2="45.89" y2="32.41"/><path d="M42.72,14.21c0-1.92-1.31-3.13-3.27-3.45a3.21,3.21,0,0,0,2.2-3,3.11,3.11,0,0,0-1.31-2.79,5.18,5.18,0,0,0-3.23-.71H34V18.15h3.73a5,5,0,0,0,3.48-.91,3.7,3.7,0,0,0,1.47-3Zm-1.17.06a2.59,2.59,0,0,1-1.21,2.32,5.24,5.24,0,0,1-2.93.57H35.13V11.4h2.28a5.25,5.25,0,0,1,2.93.59,2.5,2.5,0,0,1,1.21,2.28Zm-1-6.52a2.45,2.45,0,0,1-1.11,2.18,4.18,4.18,0,0,1-2.43.5H35.13V5.2h2.08a4.21,4.21,0,0,1,2.22.43,2.19,2.19,0,0,1,1.11,2.12Zm13.19,9.39H46.16l4-3.94c.7-.71,3-2.63,3-5.09A4.06,4.06,0,0,0,48.78,4a4.61,4.61,0,0,0-4.24,2.93l.81.5A3.79,3.79,0,0,1,48.78,5a3.06,3.06,0,0,1,3.28,3.17c0,1.82-1.46,3.33-2.37,4.24l-5,4.95.21.81h8.88v-1Zm11.35-2.93c0-1.92-1.31-3.13-3.27-3.45a3.21,3.21,0,0,0,2.2-3A3.11,3.11,0,0,0,62.7,4.92a5.18,5.18,0,0,0-3.23-.71H56.4V18.15h3.73a5,5,0,0,0,3.48-.91,3.67,3.67,0,0,0,1.47-3Zm-1.17.06a2.59,2.59,0,0,1-1.21,2.32,5.24,5.24,0,0,1-2.93.57H57.49V11.4h2.28A5.25,5.25,0,0,1,62.7,12a2.5,2.5,0,0,1,1.21,2.28Zm-1-6.52a2.43,2.43,0,0,1-1.11,2.18,4.14,4.14,0,0,1-2.42.5H57.49V5.2h2.08a4.19,4.19,0,0,1,2.22.43A2.17,2.17,0,0,1,62.9,7.75ZM85.83,4.21H84.55l-4.8,11.9L75,4.21H73.71L72.29,18.15h1.09L74.53,6l5.18,12.36h.1L85,6.05l1.19,12.1h1.09L85.83,4.21Zm11,8.38a3.8,3.8,0,0,0-.91-2.92A3.57,3.57,0,0,0,93.1,8.61a5.73,5.73,0,0,0-3.13,1l.4.77a5.09,5.09,0,0,1,2.77-.81,2.41,2.41,0,0,1,2.62,2.57v.5l-2.56.1c-2.53.11-3.74,1.22-3.74,2.83a2.9,2.9,0,0,0,3.13,2.83,4.08,4.08,0,0,0,3.17-1.51v1.31h1.07V12.59Zm-1.07,3.13a3.57,3.57,0,0,1-3,1.72,2,2,0,0,1-2.28-1.92c0-1,.63-1.86,2.59-2l2.66-.16v2.32Zm8.95-7a3.14,3.14,0,0,0-1-.15,2.47,2.47,0,0,0-2.38,1.92V8.78h-1v9.37h1v-5a4.43,4.43,0,0,1,.66-2.63,2.06,2.06,0,0,1,1.62-.85,2.71,2.71,0,0,1,1,.17l.1-1Zm5.35,3.59,3.84-3.57h-1.31L108.08,13V4.21h-1V18.15h1v-4L109.35,13l3.84,5.15h1.31l-4.44-5.8Zm14,.65a4.18,4.18,0,0,0-4.24-4.39,4.59,4.59,0,0,0-4.55,4.85c0,2.87,1.76,4.89,4.49,4.89a5.1,5.1,0,0,0,3.89-1.41l-.5-.75a4.78,4.78,0,0,1-3.29,1.21c-2.12,0-3.38-1.47-3.48-3.7H124a5.77,5.77,0,0,0,.06-.7Zm-7.64-.2a3.33,3.33,0,0,1,3.34-3.28A3.26,3.26,0,0,1,123,12.8Zm14.2,4.34a2,2,0,0,1-1,.26c-1.25,0-1.37-1.23-1.37-2.26V9.77h2.38V8.82H128.3v-3h-1.07v3h-1.42v.95h1.42v4.74a6.16,6.16,0,0,0,.34,2.83,1.84,1.84,0,0,0,1.78,1,2.93,2.93,0,0,0,1.41-.3l-.1-.91Zm3.68-8.36h-1.05v9.37h1.05V8.78Zm11.13,3.77c0-2.22-.63-3.94-3.32-3.94a3.29,3.29,0,0,0-3,1.9V8.78h-1.05v9.37h1.05V13.5c0-2.22,1-4,3-4s2.29,1.56,2.29,3.07v5.56h1.07v-5.6Zm12-3.77h-1.07v1.77a3.92,3.92,0,0,0-3.53-1.94,4.54,4.54,0,0,0-4.59,4.77,4.54,4.54,0,0,0,4.59,4.77,3.84,3.84,0,0,0,3.53-2v.69a5.51,5.51,0,0,1-.8,3.19,3.46,3.46,0,0,1-2.83,1.21A5.5,5.5,0,0,1,149.34,20l-.6.8a6.12,6.12,0,0,0,3.94,1.42,4.42,4.42,0,0,0,4-2,7.47,7.47,0,0,0,.76-4V8.78Zm-1,4.58c0,2.12-1.21,3.84-3.53,3.84s-3.54-1.72-3.54-3.84,1.22-3.82,3.54-3.82,3.53,1.7,3.53,3.82Z"/><path d="M134.68,5.44a.87.87,0,1,0-.87.87.86.86,0,0,0,.87-.87Z"/><path class="cls-4" d="M10.16,11a2.22,2.22,0,1,1,2.21,2.21A2.21,2.21,0,0,1,10.16,11Z"/><path class="cls-4" d="M22.9,11a1,1,0,1,1-1-1,1,1,0,0,1,1,1Z"/><path class="cls-4" d="M20,17.63a1,1,0,1,1-1-1,1,1,0,0,1,1,1Z"/><path class="cls-4" d="M19,3.45a1,1,0,1,1-1,1,1,1,0,0,1,1-1Z"/><path class="cls-4" d="M13.85,1.48A1.48,1.48,0,1,1,12.37,0a1.48,1.48,0,0,1,1.48,1.48Z"/><path class="cls-4" d="M13.85,20.59a1.48,1.48,0,1,1-1.48-1.47,1.48,1.48,0,0,1,1.48,1.47Z"/><path class="cls-4" d="M5.91,11a3,3,0,1,1-3-3,3,3,0,0,1,3,3Z"/><path class="cls-4" d="M8.61,4.44A2.22,2.22,0,1,1,6.39,2.22,2.22,2.22,0,0,1,8.61,4.44Z"/><path class="cls-4" d="M6.39,15.42a2.22,2.22,0,1,1-2.21,2.21,2.21,2.21,0,0,1,2.21-2.21Z"/></g></g></svg>