<svg xmlns="http://www.w3.org/2000/svg" viewBox="0 0 157.57 67.02"><defs><style>.cls-1,.cls-3{opacity:0.5;}.cls-2,.cls-3{fill:#1d1d1b;}.cls-4{fill:#9b9696;}.cls-5{fill:#020303;}.cls-6{fill:#929396;}</style></defs><title>award3</title><g id="Layer_2" data-name="Layer 2"><g id="Artwork"><g class="cls-1"><path class="cls-2" d="M57.64,23.78h6.21a4.64,4.64,0,0,1,3.29,1,3.6,3.6,0,0,1,1.26,2.65c0,1.19-.53,2-1.91,2.87,1.59.92,2.32,2,2.32,3.39a4.06,4.06,0,0,1-1.38,3,5.11,5.11,0,0,1-3.52,1H57.64Zm2.87,5.55h3.11c1.34,0,2-.54,2-1.59s-.69-1.57-2-1.57H60.51Zm0,6h3.42c1.4,0,2.12-.61,2.12-1.8s-.72-1.81-2.12-1.81H60.51Z"/><path class="cls-2" d="M81.36,23.78h6.21a4.64,4.64,0,0,1,3.29,1,3.63,3.63,0,0,1,1.26,2.65c0,1.19-.54,2-1.91,2.87,1.58.92,2.31,2,2.31,3.39a4,4,0,0,1-1.38,3,5.09,5.09,0,0,1-3.51,1H81.36Zm2.86,5.55h3.12c1.34,0,2-.54,2-1.59s-.69-1.57-2-1.57H84.22Zm0,6h3.43c1.39,0,2.12-.61,2.12-1.8s-.73-1.81-2.12-1.81H84.22Z"/><path class="cls-2" d="M99.28,23.78h6.22a4.61,4.61,0,0,1,3.28,1,3.61,3.61,0,0,1,1.27,2.65c0,1.19-.54,2-1.92,2.87,1.59.92,2.32,2,2.32,3.39a4.06,4.06,0,0,1-1.38,3,5.11,5.11,0,0,1-3.52,1H99.28Zm2.87,5.55h3.12c1.34,0,2-.54,2-1.59s-.68-1.57-2-1.57h-3.12Zm0,6h3.42c1.4,0,2.12-.61,2.12-1.8s-.72-1.81-2.12-1.81h-3.42Z"/><path class="cls-2" d="M114.28,37.72h-2.87V23.78h7.48a3.54,3.54,0,0,1,2.69,1,4,4,0,0,1,1,2.81A3.39,3.39,0,0,1,120.28,31c1.78.77,1.85,1,1.93,5.07a1.09,1.09,0,0,0,.61,1.14v.52h-3.07a4.23,4.23,0,0,1-.43-2.39c0-.21,0-.55,0-.92v-.57c0-1.15-.53-1.64-1.77-1.64h-3.29Zm3.46-7.91a2.12,2.12,0,0,0,1.51-.37,1.9,1.9,0,0,0,.51-1.49,1.74,1.74,0,0,0-.51-1.41,2.07,2.07,0,0,0-1.51-.37h-3.46v3.64Z"/><path class="cls-2" d="M127.61,34.3l-.94,3.31-3.22-.3,5.25-13.64h3.17L137,37.61h-3.25l-.91-3.31ZM130.23,27l-1.82,4.95H132Z"/><path class="cls-2" d="M138.57,37.72l-4.7-13.94h2.88l3.53,10.14,3.38-10.14h2.89l-4.78,13.94Z"/><path class="cls-2" d="M150.37,34.89h7.08v2.83H147.5V23.78h10.07v2.39h-7.2v3.16H157v2.39h-6.67Z"/></g><path class="cls-3" d="M70,37.58V33.51s0-2.76,3.47-3.47,3.36-1.53,3.36-2.65A1.55,1.55,0,0,0,75.22,26c-1.42,0-2.09.19-2.24,1.16H70a3.62,3.62,0,0,1,3.28-3.59s3.28-.41,5.15.79,1.16,4.7,1,5.07-.6,2-3.36,2.65S72.87,33,72.83,35h6.76v2.54Z"/><rect class="cls-4" x="104.56" y="7.02" width="0.34" height="14.25"/><rect class="cls-4" x="140.52" y="7.02" width="1.19" height="14.25"/><path class="cls-4" d="M112.9,21.27h.33V7.47l-.33-.11Z"/><rect class="cls-4" x="105.57" y="7.02" width="1.34" height="14.25"/><polygon class="cls-4" points="76.84 13.09 70.15 13.09 70.15 6.98 68.24 6.98 68.24 21.28 70.15 21.28 70.15 14.8 76.84 14.8 76.84 21.28 78.73 21.28 78.73 6.98 76.84 6.98 76.84 13.09"/><polygon class="cls-4" points="56.28 8.67 60.74 8.67 60.74 21.28 62.65 21.28 62.65 8.67 67.11 8.67 67.11 6.97 56.28 6.97 56.28 8.67"/><rect class="cls-4" x="107.59" y="7.02" width="0.24" height="14.25"/><path class="cls-4" d="M113.91,21.27h1.34V14.91a2.65,2.65,0,0,0-.4-.69,3,3,0,0,0,.4-.77V9.59a3.28,3.28,0,0,0-1.34-1.78Z"/><rect class="cls-4" x="131.94" y="7.02" width="0.48" height="14.25"/><polygon class="cls-4" points="80.34 21.28 89.73 21.28 89.73 19.56 82.25 19.56 82.25 14.8 89.52 14.8 89.52 13.09 82.25 13.09 82.25 8.69 89.73 8.69 89.73 6.98 80.34 6.98 80.34 21.28"/><path class="cls-4" d="M122.79,21.4H123V17.23l-.21.05Z"/><path class="cls-4" d="M118.26,7h-.35V20.15a4.11,4.11,0,0,0,.35.27Z"/><path class="cls-4" d="M123.34,17v4.35a6.05,6.05,0,0,0,2.45-.79V7h-2.25v6.66c0,.82,0,1.5,0,2.07a2.62,2.62,0,0,1-.2,1.25"/><rect class="cls-4" x="128.86" y="7.02" width="2.41" height="14.25"/><polygon class="cls-4" points="135.95 13.37 134.14 7.02 132.62 7.02 132.62 21.27 133.01 21.27 133.01 17 134.18 21.27 135.95 21.27 135.95 13.37"/><path class="cls-4" d="M127.81,7h-1.75V20.38a4.36,4.36,0,0,0,1.75-3Z"/><polygon class="cls-4" points="139.84 21.27 139.84 7.02 138.28 7.02 136.29 14.03 136.29 21.27 138.13 21.27 139.35 17 139.35 21.27 139.84 21.27"/><path class="cls-4" d="M122.59,17.31l-.46,0c-1.09,0-1.19-.24-1.26-.46a13.92,13.92,0,0,1-.15-3.19V7h-2.25V20.56a7,7,0,0,0,3.66.86h.46Z"/><rect class="cls-4" x="143.05" y="7.02" width="0.5" height="14.25"/><rect class="cls-4" x="103.88" y="7.02" width="0.34" height="14.25"/><path class="cls-4" d="M102.44,18.65a10.09,10.09,0,0,0,.63-4.5,10.17,10.17,0,0,0-.63-4.45Z"/><path class="cls-4" d="M99.49,7.29A10.9,10.9,0,0,0,96.81,7H91V21.27h5.8A11.26,11.26,0,0,0,99.49,21Z"/><path class="cls-4" d="M117.11,7h-.77v7.1c0,1.25,0,2,0,2.61a5.3,5.3,0,0,0,.73,2.48Z"/><path class="cls-4" d="M102.11,9.11h0a4.25,4.25,0,0,0-2.41-1.75V21a4.22,4.22,0,0,0,2.42-1.73Z"/><path class="cls-4" d="M111.21,21.27h1.35v-14A10.19,10.19,0,0,0,110.78,7v9.43a1.59,1.59,0,0,1,.38.07,2.14,2.14,0,0,1,0,.8Z"/><path class="cls-4" d="M110.45,7H108V21.27h.23V16.46h1c.35,0,.75,0,1.14,0Z"/><path class="cls-4" d="M146,8.18c.22,0,.43,0,.43-.26s-.16-.24-.34-.24h-.33v.5Zm-.24.79h-.18V7.52h.56c.33,0,.47.15.47.4a.38.38,0,0,1-.36.41l.43.64h-.21L146,8.33h-.3Zm-.78-.72A1.06,1.06,0,1,0,146,7.17a1,1,0,0,0-1.06,1.08m2.32,0A1.26,1.26,0,1,1,146,7a1.24,1.24,0,0,1,1.26,1.26"/><path class="cls-5" d="M61.92,44.18l-1.53,4.35h3Zm3.59,10.17-1.13-3.17H59.45l-1.12,3.17H55.11l5.31-13.93h3.06l5.27,13.93Z"/><polygon class="cls-5" points="81.48 54.35 78.27 54.35 75.78 43.68 73.25 54.35 70.06 54.35 66.97 40.42 69.91 40.42 71.88 50.18 74.19 40.42 77.43 40.42 79.85 50.18 81.77 40.42 84.63 40.42 81.48 54.35"/><path class="cls-5" d="M89.66,44.18l-1.52,4.35h3Zm3.6,10.17-1.13-3.17H87.2l-1.13,3.17H82.86l5.3-13.93h3.07l5.26,13.93Z"/><path class="cls-5" d="M101.17,43.12H99.52v3.26h1.8c2.34,0,3.23.12,3.23-1.63s-1.12-1.63-3.38-1.63m3.38,11.23V50.91c0-1,0-1.24-.33-1.55s-1.13-.31-2.65-.31h-2v5.3h-3V40.42h5.31c3.15,0,5.74.13,5.74,4,0,1.67-.29,2.66-1.36,3.09,1.53.44,1.36,2.28,1.36,3.43v3.4Z"/><path class="cls-5" d="M114.06,43.14H111.8v8.5h2.26c2.4,0,3.15-.13,3.15-4.24s-.75-4.26-3.15-4.26m5.3,9.33c-1,1.49-2.5,1.88-5.09,1.88h-5.52V40.42h5.5c2.58,0,4.09.42,5.09,1.9.73,1.09.92,2.34.92,5.08s-.17,4-.9,5.07"/><path class="cls-5" d="M126.73,54.52c-3.59,0-5.86-.92-5.84-4.28h3c0,1.21,1.21,1.52,2.71,1.52,1.71,0,2.8-.29,2.8-1.52,0-1.53-1-1.4-2.86-1.5-2.82-.19-5.62-.28-5.62-4.14,0-3.4,2-4.32,5.64-4.32s5.82,1,5.82,4.28h-3c0-1.42-1.53-1.59-2.86-1.59-2.22,0-2.55.57-2.55,1.46,0,1.36,1.09,1.32,2.71,1.4,2.91.15,5.77.13,5.77,4.18,0,3.09-2,4.51-5.77,4.51"/><polygon class="cls-6" points="56.85 58.83 56.85 66.92 58.62 66.92 58.62 63.57 62.38 63.57 62.38 62 58.62 62 58.62 60.41 62.49 60.41 62.49 58.83 56.85 58.83"/><rect class="cls-6" x="63.19" y="58.83" width="1.77" height="8.09"/><polygon class="cls-6" points="70.97 58.83 70.97 64.09 67.95 58.83 66.19 58.83 66.19 66.92 67.81 66.92 67.81 61.65 70.8 66.92 72.6 66.92 72.6 58.83 70.97 58.83"/><path class="cls-6" d="M77,61l.89,2.53H76.09Zm-.87-2.18L73,66.92h1.86l.66-1.84H78.4l.66,1.84h1.88l-3.06-8.09Z"/><polygon class="cls-6" points="81.4 58.83 81.4 66.92 87.09 66.92 87.09 65.34 83.17 65.34 83.17 58.83 81.4 58.83"/><rect class="cls-6" x="87.65" y="58.83" width="1.77" height="8.09"/><path class="cls-6" d="M93.6,67c-2.08,0-3.4-.54-3.39-2.49H92c0,.7.7.89,1.58.89s1.62-.17,1.62-.89c0-.88-.61-.81-1.66-.87-1.64-.11-3.26-.16-3.26-2.4,0-2,1.19-2.51,3.27-2.51s3.38.57,3.38,2.48H95.17c0-.82-.89-.92-1.66-.92-1.29,0-1.48.33-1.48.85,0,.79.63.76,1.57.81,1.69.09,3.35.08,3.35,2.43C97,66.19,95.81,67,93.6,67"/><polygon class="cls-6" points="97.37 58.83 97.37 60.41 99.77 60.41 99.77 66.92 101.54 66.92 101.54 60.41 103.94 60.41 103.94 58.83 97.37 58.83"/><path class="cls-6" d="M111,63.2a6.65,6.65,0,0,1-2,.75c-1,.29-1.15.44-1.15,1.09v.38h4v1.5h-5.64V64.83c0-2.12,1.69-2.08,3.17-2.6.57-.21.78-.44.78-1s-.14-1-1.12-1c-.73,0-1.08.23-1.08.68h-1.71c0-1.79,1.55-2.14,2.76-2.14,1.9,0,2.85.59,2.85,2.5a2.19,2.19,0,0,1-.82,2"/><path class="cls-6" d="M116.41,60.89c-.11-.37-.31-.68-1.06-.68s-1,.31-1.06.68a8.55,8.55,0,0,0-.13,2,8.48,8.48,0,0,0,.13,2c.11.38.31.68,1.06.68s1-.3,1.06-.68a8.48,8.48,0,0,0,.13-2,8.55,8.55,0,0,0-.13-2m1.81,3.53c-.13,1.75-.88,2.6-2.87,2.6-3,0-2.92-2-2.92-4.14s-.09-4.13,2.92-4.13,2.92,2,2.92,4.13c0,.55,0,1.07,0,1.54"/><polygon class="cls-6" points="120.58 58.83 118.46 60.94 119.56 62.04 120.6 61 120.6 65.44 118.81 65.44 118.81 66.92 124.14 66.92 124.14 65.44 122.31 65.44 122.31 58.83 120.58 58.83"/><polygon class="cls-6" points="123.78 58.56 129.7 58.56 129.7 60.1 126.07 66.92 123.98 66.92 127.61 60.2 123.78 60.2 123.78 58.56"/><polygon class="cls-6" points="22.7 29.67 23.23 32.88 34.39 37.66 45.55 32.8 46.07 29.67 34.39 34 22.7 29.67"/><path class="cls-6" d="M23.94,36.53s.22,5.87.33,6.61a20.72,20.72,0,0,0,1.94,4.07A46,46,0,0,1,25,37Z"/><path class="cls-6" d="M26.62,37.62s.53,7.46.64,8.21A20.17,20.17,0,0,0,29.2,49.9a64.11,64.11,0,0,1-1.38-11.83Z"/><path class="cls-6" d="M29.53,39.11s.53,7.47.64,8.21a20.17,20.17,0,0,0,1.94,4.07,64,64,0,0,1-1.38-11.83Z"/><path class="cls-6" d="M42.52,47.21a20.17,20.17,0,0,0,1.94-4.07c.12-.74.34-6.61.34-6.61L43.72,37A45.64,45.64,0,0,1,42.52,47.21Z"/><path class="cls-6" d="M39.54,49.9a20.72,20.72,0,0,0,1.94-4.07c.11-.75.63-8.21.63-8.21l-1.19.45A64.11,64.11,0,0,1,39.54,49.9Z"/><path class="cls-6" d="M36.63,51.39a20.72,20.72,0,0,0,1.94-4.07c.11-.74.63-8.21.63-8.21L38,39.56A64.94,64.94,0,0,1,36.63,51.39Z"/><path class="cls-6" d="M33.64,20.75c-7.76,7.13-13.32,6.16-13.32,6.16l0,1.6a1.63,1.63,0,0,0,.49-.86C31,26.27,33.64,20.75,33.64,20.75Z"/><path class="cls-6" d="M47.86,27.65a1.63,1.63,0,0,0,.49.86l0-1.6s-5.56,1-13.32-6.16C35.06,20.75,37.67,26.27,47.86,27.65Z"/><path class="cls-6" d="M50.85,28.55V23.7l-.46.16A16.4,16.4,0,0,0,39.43,12c1.31-3.27,1.29-7.41-1.66-10.07-4.44-4-9.91-.9-13.9,1.37l-.17.1c-.4.22-.8.47-1.22.73a10.87,10.87,0,0,1-3.84,1.77,2.46,2.46,0,0,1-1.81-.39,1.18,1.18,0,0,1-.45-.86.57.57,0,0,1,0-.15,2.08,2.08,0,0,1,1.27,0l2.14.41L18.55,3.11a4.32,4.32,0,0,0-4.79-1.55,4.47,4.47,0,0,0-2.94,2.72,5.59,5.59,0,0,0-.07,3.66,9.67,9.67,0,0,0-4.66-.1c-2.47.63-5.54,2.46-6,5.53-.4,2.58,1.26,5.55,3.12,7.16l1.18,1L4.65,20A5.55,5.55,0,0,1,5.89,16.9c.55-.59,1.14-.92,1.5-.84a5.12,5.12,0,0,1,2.53,1.72,6.33,6.33,0,0,0,3.86,2.29,13.68,13.68,0,0,0,6.67-.83A16.23,16.23,0,0,0,18.6,24l-1-.3v4.82l.17.23c3.74,5.21.47,12.27.44,12.34l-.2.42.23.4C18.54,42.42,25,53.65,34,56.28l.25.07.25-.07c9-2.63,15.45-13.86,15.72-14.34l.23-.4-.2-.42c0-.07-3.3-7.13.44-12.34ZM15.24,17l-1.48.39a5.74,5.74,0,0,1-1.54.08,11.16,11.16,0,0,1-1-.95,6.76,6.76,0,0,0-3.42-2.22,3.64,3.64,0,0,0-3.2,1.37A5.65,5.65,0,0,0,3.27,18a6.2,6.2,0,0,1-1.44-4.36c.33-2.06,2.6-3.54,4.71-4.08s4.22.15,6.32.86c0,0,3.81,1.36,5.74,2.07a15.15,15.15,0,0,1-7.22,2.36,11.6,11.6,0,0,0,7.89-.1A16,16,0,0,1,15.24,17Zm3.67-4.69a62.25,62.25,0,0,0-5.47-3.58h0a4.65,4.65,0,0,0-.5-.25h0a4.06,4.06,0,0,1-.45-3.55,2.68,2.68,0,0,1,1.76-1.65,3,3,0,0,1,.95-.12l0,0a1.86,1.86,0,0,0-.59,1.63,2.94,2.94,0,0,0,1.13,2.11,4.22,4.22,0,0,0,3.18.77,12.4,12.4,0,0,0,4.53-2c.39-.24.78-.48,1.15-.69l.18-.1c3.71-2.12,8.33-4.75,11.81-1.6,2.34,2.11,2.22,5.63,1.1,8.28a14.91,14.91,0,0,0-1.76-.25A4.84,4.84,0,0,0,35,6.25c-2.59-2.86-8.19,0-8.19,0,2.94-.35,4.09,1.4,4.09,1.4C25,7.4,22.36,9.29,22,9.69s-1.44,1.41-1.44,1.41C20,11.56,19.46,12,18.91,12.32ZM34.5,13A14.57,14.57,0,0,1,48.64,24.3a9.82,9.82,0,0,1-1.29.05,10.39,10.39,0,0,0-1-2.4,13.74,13.74,0,0,0-2-2.64,18.41,18.41,0,0,0-5.23-3.75,18.13,18.13,0,0,1,4.66,4.23,13,13,0,0,1,1.56,2.65,9.17,9.17,0,0,1,.54,1.76c-2.69-.45-6.57-2.06-11-6.93l-.67-.75-.67.76c-4,4.6-7.78,6.27-10.51,6.81a9.86,9.86,0,0,1,.52-1.65,13,13,0,0,1,1.56-2.65,18.13,18.13,0,0,1,4.66-4.23,18.41,18.41,0,0,0-5.23,3.75,13.74,13.74,0,0,0-2,2.64,10.63,10.63,0,0,0-1,2.35,10.9,10.9,0,0,1-1.26,0A14.42,14.42,0,0,1,34.5,13ZM49.06,28c-3.59,5.28-1.36,11.71-.64,13.46-1.18,1.94-6.89,10.75-14.18,13-7.28-2.29-13-11.1-14.19-13,.72-1.76,2.95-8.18-.63-13.46V26c2.44.31,8.4.13,14.86-6.83,6.64,7,12.37,7.17,14.78,6.85Z"/></g></g></svg>