<svg xmlns="http://www.w3.org/2000/svg" viewBox="0 0 157.48 71.69"><defs><style>.cls-1{fill:#9b9696;stroke-miterlimit:10;stroke-width:0.25px;}.cls-1,.cls-3{stroke:#9b9696;}.cls-2{fill:#1b2023;}.cls-3{fill:none;stroke-width:0.5px;}.cls-4{fill:#9b9695;}</style></defs><title>award5</title><g id="Layer_2" data-name="Layer 2"><g id="Artwork"><path class="cls-1" d="M32.39,45.35h6.5V46H36v7.71h-.72V46H32.39Z"/><path class="cls-1" d="M42.11,48.16a2.5,2.5,0,0,1,1.85.78,2.58,2.58,0,0,1,.77,1.88A3,3,0,0,1,44,52.88a2.51,2.51,0,0,1-2,.82,2.47,2.47,0,0,1-1.93-.82,3,3,0,0,1-.74-2,2.58,2.58,0,0,1,.78-1.94A2.74,2.74,0,0,1,42.11,48.16ZM42,53.1a1.86,1.86,0,0,0,1.49-.62,2.28,2.28,0,0,0,.55-1.59,2.24,2.24,0,0,0-.55-1.56,1.91,1.91,0,0,0-1.49-.6,1.87,1.87,0,0,0-1.47.61A2.22,2.22,0,0,0,40,50.89a2.32,2.32,0,0,0,.54,1.59A1.84,1.84,0,0,0,42,53.1Z"/><path class="cls-1" d="M46.05,48.19h.62v.31a2.61,2.61,0,0,1,.64-.26,2.54,2.54,0,0,1,.7-.08,2.67,2.67,0,0,1,2,.77,2.56,2.56,0,0,1,.8,1.92,2.91,2.91,0,0,1-.72,2,2.57,2.57,0,0,1-2,.78,3.35,3.35,0,0,1-.7-.1,3.54,3.54,0,0,1-.68-.24V56.5h-.62ZM48,53.06a2.1,2.1,0,0,0,1.49-.57A1.88,1.88,0,0,0,50.07,51a2.29,2.29,0,0,0-.6-1.62,2.06,2.06,0,0,0-1.58-.64,2.5,2.5,0,0,0-.62.09,5.62,5.62,0,0,0-.6.2V52.7a3.65,3.65,0,0,0,.64.24A2.44,2.44,0,0,0,48,53.06Z"/><path class="cls-1" d="M54.42,53.41c.58-.56,1.09-1.08,1.52-1.57a14,14,0,0,0,1.5-2,4,4,0,0,0,.67-2,1.77,1.77,0,0,0-.48-1.3,1.7,1.7,0,0,0-1.29-.5,2.23,2.23,0,0,0-.94.27,3.19,3.19,0,0,0-.86.55v-.82a7.43,7.43,0,0,1,.87-.45,2.53,2.53,0,0,1,1-.21,2.25,2.25,0,0,1,2.43,2.44,4.09,4.09,0,0,1-.53,1.89,11.65,11.65,0,0,1-1.22,1.79c-.17.21-.62.72-1.34,1.51h3.83v.66H54.42Z"/><path class="cls-1" d="M63.35,45.33a2.19,2.19,0,0,1,2.08,1.53,6.82,6.82,0,0,1,.51,2.77,6,6,0,0,1-.54,2.66,2.21,2.21,0,0,1-4.18-.13,6.62,6.62,0,0,1-.53-2.75,5.7,5.7,0,0,1,.58-2.64A2.27,2.27,0,0,1,63.35,45.33Zm0,7.73c.69,0,1.21-.43,1.54-1.29a6,6,0,0,0,.36-2.17,6.33,6.33,0,0,0-.35-2.25C64.55,46.44,64,46,63.32,46s-1.19.44-1.54,1.31a6.19,6.19,0,0,0-.37,2.18,6.4,6.4,0,0,0,.36,2.23C62.12,52.61,62.63,53.06,63.33,53.06Z"/><path class="cls-2" d="M69.64,48.24h1v-.42A3.28,3.28,0,0,1,71,46.11a1.59,1.59,0,0,1,1.49-.76,4.52,4.52,0,0,1,.58,0,2.74,2.74,0,0,1,.39.1v.67a2.29,2.29,0,0,0-.92-.19,1.08,1.08,0,0,0-1,.57,2.63,2.63,0,0,0-.23,1.21v.49h1.16v.59H71.28v4.82h-.67V48.83h-1Z"/><path class="cls-2" d="M74.41,48.69a1.78,1.78,0,0,0-.85.23,4.92,4.92,0,0,0-.73.52v-.68a4.37,4.37,0,0,1,.82-.48,2.23,2.23,0,0,1,.92-.19,1.54,1.54,0,0,1,1.19.45,1.85,1.85,0,0,1,.41,1.26v2.79a.48.48,0,0,0,.08.3l.1,0a.55.55,0,0,0,.22-.09l.37-.25v.6l-.48.28a1.4,1.4,0,0,1-.51.18.48.48,0,0,1-.31-.1,1.48,1.48,0,0,1-.24-.32,4.52,4.52,0,0,1-.71.31,1.92,1.92,0,0,1-.67.11,1.47,1.47,0,0,1-1-.41,1.31,1.31,0,0,1-.44-1,1.62,1.62,0,0,1,1-1.52,4.25,4.25,0,0,1,1.92-.41l0-.35a1.38,1.38,0,0,0-.26-.9A1,1,0,0,0,74.41,48.69Zm1.1,2.11a3.38,3.38,0,0,0-1.46.31,1.18,1.18,0,0,0-.86,1.08.8.8,0,0,0,.3.66,1.13,1.13,0,0,0,.73.24,1.62,1.62,0,0,0,.65-.14,2.63,2.63,0,0,0,.64-.35Z"/><path class="cls-2" d="M77.41,52.36a2,2,0,0,0,.7.54,2,2,0,0,0,.87.19,1.2,1.2,0,0,0,.72-.2.73.73,0,0,0,.34-.65c0-.37-.42-.75-1.27-1.15s-1.26-.89-1.26-1.48A1.24,1.24,0,0,1,78,48.55a2,2,0,0,1,1.22-.39,2.8,2.8,0,0,1,.7.09,1.44,1.44,0,0,1,.6.27v.74a2.78,2.78,0,0,0-.61-.4,1.69,1.69,0,0,0-.68-.14,1.26,1.26,0,0,0-.73.22.67.67,0,0,0-.33.6c0,.35.42.73,1.25,1.13s1.24.92,1.24,1.56a1.32,1.32,0,0,1-.5,1.07,1.79,1.79,0,0,1-1.18.41,2.73,2.73,0,0,1-.83-.14,3.32,3.32,0,0,1-.77-.4Z"/><path class="cls-2" d="M81.16,48.25h1.09v-1l.65-.68v1.63h1.44v.62H82.9V52.3a.81.81,0,0,0,.21.58.74.74,0,0,0,.57.21,1.65,1.65,0,0,0,.43-.06,3,3,0,0,0,.44-.16v.66a2.91,2.91,0,0,1-.47.13,2.09,2.09,0,0,1-.47.05,1.21,1.21,0,0,1-1.08-.47,2,2,0,0,1-.28-1.2v-3.2H81.16Z"/><path class="cls-2" d="M85.56,50.78A2.6,2.6,0,0,0,86,52.37a1.71,1.71,0,0,0,1.45.7,3,3,0,0,0,1-.2,4.63,4.63,0,0,0,.92-.46v.65l-1,.44a2.74,2.74,0,0,1-1,.21,2.32,2.32,0,0,1-1.93-.89,3.2,3.2,0,0,1-.66-2.08,2.68,2.68,0,0,1,.68-1.83,2.25,2.25,0,0,1,1.75-.75,2.12,2.12,0,0,1,1.65.66,2.47,2.47,0,0,1,.6,1.72v.24Zm3.32-.62a1.66,1.66,0,0,0-.51-1,1.49,1.49,0,0,0-1.06-.37,1.6,1.6,0,0,0-1.08.36,2.17,2.17,0,0,0-.63,1Z"/><path class="cls-2" d="M90.36,52.36a2,2,0,0,0,.71.54,2,2,0,0,0,.86.19,1.18,1.18,0,0,0,.72-.2.73.73,0,0,0,.34-.65c0-.37-.42-.75-1.26-1.15s-1.26-.89-1.26-1.48A1.26,1.26,0,0,1,91,48.55a2,2,0,0,1,1.22-.39,2.74,2.74,0,0,1,.7.09,1.38,1.38,0,0,1,.6.27v.74a2.51,2.51,0,0,0-.6-.4,1.72,1.72,0,0,0-.68-.14,1.29,1.29,0,0,0-.74.22.66.66,0,0,0-.32.6c0,.35.41.73,1.24,1.13s1.25.92,1.25,1.56a1.3,1.3,0,0,1-.51,1.07,1.77,1.77,0,0,1-1.18.41,2.62,2.62,0,0,1-.82-.14,3.2,3.2,0,0,1-.78-.4Z"/><path class="cls-2" d="M94.11,48.25H95.2v-1l.66-.68v1.63h1.43v.62H95.86V52.3a.8.8,0,0,0,.2.58.77.77,0,0,0,.57.21,1.54,1.54,0,0,0,.43-.06,2.69,2.69,0,0,0,.45-.16v.66a3,3,0,0,1-.48.13,2,2,0,0,1-.46.05,1.22,1.22,0,0,1-1.09-.47A2,2,0,0,1,95.2,52v-3.2H94.11Z"/><path class="cls-2" d="M98,49.69h3v.66H98Z"/><path class="cls-2" d="M102,52.7a.58.58,0,0,1,.18-.45,3.83,3.83,0,0,1,.76-.41,1.8,1.8,0,0,1-1.27-1.7,1.75,1.75,0,0,1,.73-1.57,3.21,3.21,0,0,1,1.75-.41h1.82v.56l-1.14,0a2.15,2.15,0,0,1,.46.64,1.78,1.78,0,0,1,.19.77,1.59,1.59,0,0,1-.73,1.38,7.1,7.1,0,0,1-1.36.62c-.49.19-.74.38-.74.59s.42.4,1.26.52a2.57,2.57,0,0,1,1.7.71,1.61,1.61,0,0,1,.26.46,1.27,1.27,0,0,1,.1.5,1.45,1.45,0,0,1-.77,1.3,3,3,0,0,1-1.55.39,3.41,3.41,0,0,1-1.56-.32,1.37,1.37,0,0,1-.81-1.28,1.3,1.3,0,0,1,.38-1,2,2,0,0,1,1-.48.92.92,0,0,1-.49-.29A.72.72,0,0,1,102,52.7ZM103.67,56a2.19,2.19,0,0,0,1-.25.9.9,0,0,0,.58-.82.91.91,0,0,0-.58-.86,2.45,2.45,0,0,0-1.1-.22,2.68,2.68,0,0,0-1.11.21.89.89,0,0,0-.63.83.94.94,0,0,0,.61.91A3,3,0,0,0,103.67,56Zm-.19-4.62a1.25,1.25,0,0,0,.92-.37,1.21,1.21,0,0,0,.38-.91,1.26,1.26,0,0,0-.37-.9,1.23,1.23,0,0,0-.89-.38,1.17,1.17,0,0,0-.9.39,1.25,1.25,0,0,0-.37.92,1.22,1.22,0,0,0,.35.88A1.16,1.16,0,0,0,103.48,51.34Z"/><path class="cls-2" d="M106.85,48.16h.65v1.4a6,6,0,0,1,.68-.91,1.41,1.41,0,0,1,1-.49,1.53,1.53,0,0,1,1.22.65l-.44.58a.94.94,0,0,0-.9-.55,1.08,1.08,0,0,0-.67.24,3,3,0,0,0-.46.56,3.15,3.15,0,0,0-.31.54,1.53,1.53,0,0,0-.14.59v2.88h-.65Z"/><path class="cls-2" d="M113.05,48.16a2.51,2.51,0,0,1,1.86.78,2.57,2.57,0,0,1,.76,1.88,3,3,0,0,1-.73,2.06,2.51,2.51,0,0,1-2,.82,2.47,2.47,0,0,1-1.93-.82,2.92,2.92,0,0,1-.74-2,2.58,2.58,0,0,1,.78-1.94A2.73,2.73,0,0,1,113.05,48.16ZM113,53.1a1.86,1.86,0,0,0,1.49-.62,2.28,2.28,0,0,0,.55-1.59,2.24,2.24,0,0,0-.55-1.56,2.12,2.12,0,0,0-3,0,2.21,2.21,0,0,0-.55,1.55,2.32,2.32,0,0,0,.54,1.59A1.83,1.83,0,0,0,113,53.1Z"/><path class="cls-2" d="M116.4,48.18c.36.8.67,1.56.94,2.27s.52,1.47.77,2.26c.13-.51.3-1.08.5-1.71s.57-1.65,1-2.82h.48q.15.47.51,1.5c.24.69.41,1.19.5,1.5.17.54.32,1,.43,1.53.15-.46.33-1,.53-1.52,0,0,.21-.54.58-1.49.25-.63.44-1.13.58-1.52h.63l-2.19,5.5h-.36l-1.47-4.53-1.56,4.53h-.33l-2.16-5.5Z"/><path class="cls-2" d="M124.81,45.76h.65v1h-.65Zm0,2.42h.65v5.5h-.65Z"/><path class="cls-2" d="M127,48.21h.65V49a3.35,3.35,0,0,1,.71-.62,2,2,0,0,1,.94-.23,1.54,1.54,0,0,1,.9.27,1.78,1.78,0,0,1,.76.86,3.26,3.26,0,0,1,.16,1.16v3.23h-.65l0-2.36a6,6,0,0,0-.14-1.62,1.13,1.13,0,0,0-1.17-.89,1.63,1.63,0,0,0-.83.22,2.26,2.26,0,0,0-.67.61v4H127Z"/><path class="cls-2" d="M132.53,52.7a.59.59,0,0,1,.19-.45,3.52,3.52,0,0,1,.76-.41,1.8,1.8,0,0,1-1.27-1.7,1.75,1.75,0,0,1,.73-1.57,3.19,3.19,0,0,1,1.75-.41h1.82v.56l-1.15,0a2,2,0,0,1,.46.64,1.8,1.8,0,0,1,.2.77,1.59,1.59,0,0,1-.73,1.38,7.43,7.43,0,0,1-1.36.62c-.49.19-.74.38-.74.59s.42.4,1.26.52a2.57,2.57,0,0,1,1.7.71,2.28,2.28,0,0,1,.26.46,1.27,1.27,0,0,1,.1.5,1.47,1.47,0,0,1-.77,1.3,3,3,0,0,1-1.56.39,3.39,3.39,0,0,1-1.55-.32,1.37,1.37,0,0,1-.81-1.28,1.3,1.3,0,0,1,.38-1,2,2,0,0,1,1-.48,1,1,0,0,1-.5-.29A.72.72,0,0,1,132.53,52.7ZM134.25,56a2.16,2.16,0,0,0,1-.25.91.91,0,0,0,.59-.82.92.92,0,0,0-.59-.86,2.4,2.4,0,0,0-1.1-.22,2.75,2.75,0,0,0-1.11.21.89.89,0,0,0-.63.83,1,1,0,0,0,.62.91A3,3,0,0,0,134.25,56Zm-.18-4.62A1.25,1.25,0,0,0,135,51a1.2,1.2,0,0,0,.37-.91,1.22,1.22,0,0,0-.37-.9,1.23,1.23,0,0,0-1.79,0,1.28,1.28,0,0,0-.36.92,1.22,1.22,0,0,0,.35.88A1.15,1.15,0,0,0,134.07,51.34Z"/><path class="cls-2" d="M33.39,60.49h1.53a3.56,3.56,0,0,1,1.93.46,1.85,1.85,0,0,1,.87,1.69,2.06,2.06,0,0,1-1.14,1.84,2.55,2.55,0,0,1,1.29.68,1.79,1.79,0,0,1,.55,1.33,2,2,0,0,1-.84,1.77,3.28,3.28,0,0,1-2,.52H33.39Zm1.54,3.79a2.53,2.53,0,0,0,1.39-.37,1.32,1.32,0,0,0,.7-1.18,1.41,1.41,0,0,0-1-1.45,6.48,6.48,0,0,0-1.91-.2v3.2Zm.28,3.88a3,3,0,0,0,2-.48,1.53,1.53,0,0,0,.43-1.2A1.33,1.33,0,0,0,37,65.26a2.6,2.6,0,0,0-1.42-.36H34.13v3.26Z"/><path class="cls-2" d="M38.89,68.54A19.82,19.82,0,0,0,40.41,67a13.72,13.72,0,0,0,1.5-2,4.06,4.06,0,0,0,.68-2,1.78,1.78,0,0,0-.48-1.3,1.72,1.72,0,0,0-1.3-.49,2.35,2.35,0,0,0-.94.26A3.2,3.2,0,0,0,39,62v-.82c.37-.21.66-.36.88-.46a2.44,2.44,0,0,1,1-.21A2.28,2.28,0,0,1,43.28,63a4.14,4.14,0,0,1-.54,1.89,11.42,11.42,0,0,1-1.22,1.79c-.17.21-.62.71-1.34,1.51H44v.65H38.89Z"/><path class="cls-2" d="M45.15,60.49h1.53a3.56,3.56,0,0,1,1.93.46,1.86,1.86,0,0,1,.88,1.69,2.07,2.07,0,0,1-1.15,1.84,2.58,2.58,0,0,1,1.3.68,1.83,1.83,0,0,1,.55,1.33,2,2,0,0,1-.85,1.77,3.26,3.26,0,0,1-2,.52H45.15Zm1.54,3.79a2.51,2.51,0,0,0,1.39-.37,1.32,1.32,0,0,0,.7-1.18,1.41,1.41,0,0,0-1-1.45,6.48,6.48,0,0,0-1.91-.2v3.2ZM47,68.16a3,3,0,0,0,2-.48,1.53,1.53,0,0,0,.43-1.2,1.33,1.33,0,0,0-.67-1.22,2.6,2.6,0,0,0-1.42-.36H45.89v3.26Z"/><path class="cls-2" d="M53.88,63.34h.67v.55l.5-.36a1.89,1.89,0,0,1,1-.26,1.51,1.51,0,0,1,.89.26,2.62,2.62,0,0,1,.63.7,3.36,3.36,0,0,1,.75-.69,1.84,1.84,0,0,1,1-.27,1.76,1.76,0,0,1,1.18.42,2.08,2.08,0,0,1,.65,1.11,5.32,5.32,0,0,1,.11.73c0,.26,0,.55,0,.86l0,2.42h-.63v-3.1a2.22,2.22,0,0,0-.29-1.22A1.24,1.24,0,0,0,59.17,64a1.31,1.31,0,0,0-.74.19,2.47,2.47,0,0,0-.6.58q0,.34.06.66t0,.66l0,2.77H57.2V65.46a1.66,1.66,0,0,0-.36-1.1,1.27,1.27,0,0,0-1-.43,1.4,1.4,0,0,0-.55.12,2.72,2.72,0,0,0-.7.53v4.23h-.68Z"/><path class="cls-2" d="M64.08,63.82a1.87,1.87,0,0,0-.85.23,5.12,5.12,0,0,0-.74.53v-.69a6.52,6.52,0,0,1,.82-.48,2.41,2.41,0,0,1,.93-.19,1.52,1.52,0,0,1,1.18.46,1.81,1.81,0,0,1,.41,1.25v2.8a.61.61,0,0,0,.08.3l.11,0a.52.52,0,0,0,.21-.09,3.74,3.74,0,0,0,.37-.24v.6l-.48.27a1.32,1.32,0,0,1-.5.19.45.45,0,0,1-.31-.11,1.39,1.39,0,0,1-.24-.31,7.81,7.81,0,0,1-.72.31,2.08,2.08,0,0,1-.66.11,1.5,1.5,0,0,1-1-.41,1.31,1.31,0,0,1-.45-1,1.65,1.65,0,0,1,1-1.52,4.25,4.25,0,0,1,1.92-.4l0-.36a1.44,1.44,0,0,0-.26-.9A1,1,0,0,0,64.08,63.82Zm1.1,2.12a3.58,3.58,0,0,0-1.47.3,1.21,1.21,0,0,0-.86,1.09.8.8,0,0,0,.3.66,1.15,1.15,0,0,0,.74.24,1.86,1.86,0,0,0,.65-.14,3.28,3.28,0,0,0,.64-.35Z"/><path class="cls-2" d="M67.54,63.29h.65V64.7a6.18,6.18,0,0,1,.68-.92,1.45,1.45,0,0,1,1-.49,1.54,1.54,0,0,1,1.23.66l-.45.57a1,1,0,0,0-.9-.55,1,1,0,0,0-.67.25,2.72,2.72,0,0,0-.46.56,2.77,2.77,0,0,0-.31.53,1.53,1.53,0,0,0-.14.6v2.88h-.65Z"/><path class="cls-2" d="M75,64.19c-.23-.08-.46-.15-.67-.2a2.72,2.72,0,0,0-.63-.08,1.78,1.78,0,0,0-1.39.62A2.2,2.2,0,0,0,71.74,66a2.32,2.32,0,0,0,.5,1.52,1.72,1.72,0,0,0,1.41.69,3.28,3.28,0,0,0,.88-.12l.51-.16v.64a7.57,7.57,0,0,1-.75.18,2.74,2.74,0,0,1-.6,0,2.54,2.54,0,0,1-1.9-.77A2.64,2.64,0,0,1,71,66.12a2.84,2.84,0,0,1,.73-2,2.53,2.53,0,0,1,2-.8,2.14,2.14,0,0,1,.65.1c.08,0,.28.1.6.23Z"/><path class="cls-2" d="M78.21,63.29a2.51,2.51,0,0,1,1.86.78A2.59,2.59,0,0,1,80.83,66,3,3,0,0,1,80.1,68a2.56,2.56,0,0,1-2,.82A2.47,2.47,0,0,1,76.2,68a2.89,2.89,0,0,1-.75-2A2.55,2.55,0,0,1,76.24,64,2.73,2.73,0,0,1,78.21,63.29Zm-.07,4.95a1.9,1.9,0,0,0,1.49-.62,2.37,2.37,0,0,0,.55-1.6,2.24,2.24,0,0,0-.55-1.55,1.92,1.92,0,0,0-1.49-.6,1.89,1.89,0,0,0-1.48.61A2.19,2.19,0,0,0,76.11,66a2.37,2.37,0,0,0,.54,1.6A1.86,1.86,0,0,0,78.14,68.24Z"/><path class="cls-2" d="M81.88,63.34h.67v.55q.31-.24.51-.36a1.83,1.83,0,0,1,1-.26,1.51,1.51,0,0,1,.89.26,2.8,2.8,0,0,1,.64.7,3.57,3.57,0,0,1,.74-.69,1.84,1.84,0,0,1,1-.27,1.76,1.76,0,0,1,1.18.42,2.08,2.08,0,0,1,.65,1.11,5.32,5.32,0,0,1,.11.73c0,.26,0,.55,0,.86l0,2.42h-.63v-3.1a2.22,2.22,0,0,0-.29-1.22A1.23,1.23,0,0,0,87.17,64a1.31,1.31,0,0,0-.74.19,2.45,2.45,0,0,0-.59.58c0,.23,0,.45,0,.66s0,.43,0,.66l0,2.77H85.2V65.46a1.66,1.66,0,0,0-.36-1.1,1.25,1.25,0,0,0-1-.43,1.4,1.4,0,0,0-.55.12,2.9,2.9,0,0,0-.7.53v4.23h-.68Z"/><path class="cls-2" d="M90.59,63.34h.67v.55q.32-.24.51-.36a1.83,1.83,0,0,1,1-.26,1.51,1.51,0,0,1,.89.26,2.8,2.8,0,0,1,.64.7,3.36,3.36,0,0,1,.75-.69,1.78,1.78,0,0,1,1-.27,1.74,1.74,0,0,1,1.18.42,2.08,2.08,0,0,1,.65,1.11,5.32,5.32,0,0,1,.11.73c0,.26,0,.55,0,.86l0,2.42h-.63v-3.1A2.22,2.22,0,0,0,97,64.49,1.22,1.22,0,0,0,95.88,64a1.31,1.31,0,0,0-.74.19,2.45,2.45,0,0,0-.59.58q0,.34.06.66c0,.21,0,.43,0,.66l0,2.77h-.68V65.46a1.66,1.66,0,0,0-.36-1.1,1.25,1.25,0,0,0-1-.43,1.4,1.4,0,0,0-.55.12,2.9,2.9,0,0,0-.7.53v4.23h-.68Z"/><path class="cls-2" d="M99.07,67.49a2.1,2.1,0,0,0,.71.54,2,2,0,0,0,.86.2,1.25,1.25,0,0,0,.72-.2.75.75,0,0,0,.34-.66q0-.54-1.26-1.14c-.84-.4-1.26-.89-1.26-1.49a1.25,1.25,0,0,1,.51-1,2,2,0,0,1,1.22-.4,2.88,2.88,0,0,1,.71.09,1.69,1.69,0,0,1,.59.27v.74a2.46,2.46,0,0,0-.6-.39,1.56,1.56,0,0,0-.68-.14,1.36,1.36,0,0,0-.74.21.69.69,0,0,0-.32.6c0,.36.41.74,1.24,1.13s1.25.92,1.25,1.57a1.3,1.3,0,0,1-.51,1.07,1.8,1.8,0,0,1-1.18.41,2.37,2.37,0,0,1-.82-.15,3.56,3.56,0,0,1-.78-.39Z"/><path class="cls-2" d="M107.85,63.82a1.91,1.91,0,0,0-.85.23,5.11,5.11,0,0,0-.73.53v-.69a5.88,5.88,0,0,1,.82-.48,2.4,2.4,0,0,1,.92-.19,1.54,1.54,0,0,1,1.19.46,1.81,1.81,0,0,1,.41,1.25v2.8a.52.52,0,0,0,.08.3l.1,0A.55.55,0,0,0,110,68a3.74,3.74,0,0,0,.37-.24v.6l-.48.27a1.29,1.29,0,0,1-.51.19.49.49,0,0,1-.31-.11,1.39,1.39,0,0,1-.24-.31,7.72,7.72,0,0,1-.71.31,2.19,2.19,0,0,1-.67.11,1.52,1.52,0,0,1-1-.41,1.33,1.33,0,0,1-.44-1,1.63,1.63,0,0,1,1-1.52,4.25,4.25,0,0,1,1.92-.4l0-.36a1.38,1.38,0,0,0-.26-.9A1,1,0,0,0,107.85,63.82Zm1.1,2.12a3.53,3.53,0,0,0-1.46.3,1.2,1.2,0,0,0-.86,1.09.8.8,0,0,0,.3.66,1.13,1.13,0,0,0,.73.24,1.81,1.81,0,0,0,.65-.14,3,3,0,0,0,.64-.35Z"/><path class="cls-2" d="M111.13,67.84a.62.62,0,0,1,.18-.46,4.51,4.51,0,0,1,.76-.41,1.65,1.65,0,0,1-.91-.63,1.94,1.94,0,0,1,.37-2.64,3.21,3.21,0,0,1,1.75-.41h1.82v.57l-1.14,0a2.15,2.15,0,0,1,.46.64,1.74,1.74,0,0,1,.19.76,1.6,1.6,0,0,1-.73,1.39,9.16,9.16,0,0,1-1.36.62c-.49.18-.74.38-.74.58s.42.41,1.26.52a2.62,2.62,0,0,1,1.7.71,1.75,1.75,0,0,1,.26.46,1.31,1.31,0,0,1,.1.5,1.43,1.43,0,0,1-.77,1.3,2.89,2.89,0,0,1-1.55.4,3.28,3.28,0,0,1-1.56-.33,1.36,1.36,0,0,1-.81-1.27,1.29,1.29,0,0,1,.38-1,2.11,2.11,0,0,1,1-.49.86.86,0,0,1-.49-.29A.7.7,0,0,1,111.13,67.84Zm1.72,3.25a2.3,2.3,0,0,0,1-.24.92.92,0,0,0,.58-.82.94.94,0,0,0-.58-.87,2.6,2.6,0,0,0-1.1-.22,2.68,2.68,0,0,0-1.11.21A.92.92,0,0,0,111,70a.94.94,0,0,0,.62.91A2.83,2.83,0,0,0,112.85,71.09Zm-.19-4.62a1.28,1.28,0,0,0,.92-.36,1.23,1.23,0,0,0,.38-.92,1.26,1.26,0,0,0-.37-.89,1.23,1.23,0,0,0-1.8,0,1.32,1.32,0,0,0-.36.93,1.24,1.24,0,0,0,.35.88A1.19,1.19,0,0,0,112.66,66.47Z"/><path class="cls-2" d="M116.17,65.91a2.61,2.61,0,0,0,.46,1.6,1.74,1.74,0,0,0,1.45.7,3,3,0,0,0,1-.2,4.63,4.63,0,0,0,.92-.46v.65l-1,.44a2.83,2.83,0,0,1-1,.21,2.35,2.35,0,0,1-1.93-.89,3.22,3.22,0,0,1-.66-2.08,2.64,2.64,0,0,1,.68-1.83,2.26,2.26,0,0,1,1.75-.76,2.12,2.12,0,0,1,1.65.67,2.45,2.45,0,0,1,.6,1.72v.23Zm3.32-.62a1.69,1.69,0,0,0-.51-1,1.54,1.54,0,0,0-1.06-.37,1.61,1.61,0,0,0-1.08.37,2.19,2.19,0,0,0-.63,1Z"/><path class="cls-2" d="M121.38,63.34H122v.81a2.72,2.72,0,0,1,.71-.62,1.79,1.79,0,0,1,.93-.24,1.5,1.5,0,0,1,.9.27,1.87,1.87,0,0,1,.77.87,3.46,3.46,0,0,1,.16,1.16v3.22h-.66l0-2.36a6.4,6.4,0,0,0-.14-1.61,1.13,1.13,0,0,0-1.17-.89,1.69,1.69,0,0,0-.84.21,2.43,2.43,0,0,0-.67.62v4h-.69Z"/><path class="cls-2" d="M130.51,64.19c-.23-.08-.46-.15-.67-.2a2.79,2.79,0,0,0-.63-.08,1.76,1.76,0,0,0-1.39.62,2.16,2.16,0,0,0-.54,1.48,2.33,2.33,0,0,0,.51,1.52,1.72,1.72,0,0,0,1.41.69,3.28,3.28,0,0,0,.88-.12l.51-.16v.64a7.57,7.57,0,0,1-.75.18,2.8,2.8,0,0,1-.6,0,2.54,2.54,0,0,1-1.9-.77,2.64,2.64,0,0,1-.77-1.92,2.84,2.84,0,0,1,.73-2,2.51,2.51,0,0,1,2-.8,2,2,0,0,1,.64.1,6,6,0,0,1,.61.23Z"/><path class="cls-2" d="M131.63,60.9h.66v1h-.66Zm0,2.42h.66v5.49h-.66Z"/><path class="cls-2" d="M134,65.91a2.62,2.62,0,0,0,.47,1.6,1.72,1.72,0,0,0,1.45.7,3,3,0,0,0,1-.2,4.63,4.63,0,0,0,.92-.46v.65l-1,.44a2.75,2.75,0,0,1-1,.21A2.36,2.36,0,0,1,134,68a3.27,3.27,0,0,1-.65-2.08,2.64,2.64,0,0,1,.68-1.83,2.26,2.26,0,0,1,1.75-.76,2.1,2.1,0,0,1,1.64.67,2.41,2.41,0,0,1,.61,1.72v.23Zm3.32-.62a1.74,1.74,0,0,0-.5-1,1.55,1.55,0,0,0-1.06-.37,1.61,1.61,0,0,0-1.08.37,2.19,2.19,0,0,0-.63,1Z"/><path class="cls-2" d="M138.85,67.49a2.08,2.08,0,0,0,1.57.74,1.25,1.25,0,0,0,.72-.2.75.75,0,0,0,.34-.66q0-.54-1.26-1.14c-.85-.4-1.27-.89-1.27-1.49a1.26,1.26,0,0,1,.52-1,2,2,0,0,1,1.22-.4,2.8,2.8,0,0,1,.7.09,1.66,1.66,0,0,1,.6.27v.74a2.52,2.52,0,0,0-.61-.39,1.52,1.52,0,0,0-.67-.14,1.33,1.33,0,0,0-.74.21.68.68,0,0,0-.33.6c0,.36.42.74,1.25,1.13s1.24.92,1.24,1.57a1.29,1.29,0,0,1-.5,1.07,1.82,1.82,0,0,1-1.18.41,2.37,2.37,0,0,1-.82-.15,3.56,3.56,0,0,1-.78-.39Z"/><line class="cls-3" x1="34.14" y1="32.41" x2="45.89" y2="32.41"/><path d="M42.72,14.21c0-1.92-1.31-3.13-3.27-3.45a3.21,3.21,0,0,0,2.2-3,3.11,3.11,0,0,0-1.31-2.79,5.18,5.18,0,0,0-3.23-.71H34V18.15h3.73a5,5,0,0,0,3.48-.91,3.7,3.7,0,0,0,1.47-3Zm-1.17.06a2.59,2.59,0,0,1-1.21,2.32,5.24,5.24,0,0,1-2.93.57H35.13V11.4h2.28a5.25,5.25,0,0,1,2.93.59,2.5,2.5,0,0,1,1.21,2.28Zm-1-6.52a2.45,2.45,0,0,1-1.11,2.18,4.18,4.18,0,0,1-2.43.5H35.13V5.2h2.08a4.21,4.21,0,0,1,2.22.43,2.19,2.19,0,0,1,1.11,2.12Zm13.19,9.39H46.16l4-3.94c.7-.71,3-2.63,3-5.09A4.06,4.06,0,0,0,48.78,4a4.61,4.61,0,0,0-4.24,2.93l.81.5A3.79,3.79,0,0,1,48.78,5a3.06,3.06,0,0,1,3.28,3.17c0,1.82-1.46,3.33-2.37,4.24l-5,4.95.21.81h8.88v-1Zm11.35-2.93c0-1.92-1.31-3.13-3.27-3.45a3.21,3.21,0,0,0,2.2-3A3.11,3.11,0,0,0,62.7,4.92a5.18,5.18,0,0,0-3.23-.71H56.4V18.15h3.73a5,5,0,0,0,3.48-.91,3.67,3.67,0,0,0,1.47-3Zm-1.17.06a2.59,2.59,0,0,1-1.21,2.32,5.24,5.24,0,0,1-2.93.57H57.49V11.4h2.28A5.25,5.25,0,0,1,62.7,12a2.5,2.5,0,0,1,1.21,2.28Zm-1-6.52a2.43,2.43,0,0,1-1.11,2.18,4.14,4.14,0,0,1-2.42.5H57.49V5.2h2.08a4.19,4.19,0,0,1,2.22.43A2.17,2.17,0,0,1,62.9,7.75ZM85.83,4.21H84.55l-4.8,11.9L75,4.21H73.71L72.29,18.15h1.09L74.53,6l5.18,12.36h.1L85,6.05l1.19,12.1h1.09L85.83,4.21Zm11,8.38a3.8,3.8,0,0,0-.91-2.92A3.57,3.57,0,0,0,93.1,8.61a5.73,5.73,0,0,0-3.13,1l.4.77a5.09,5.09,0,0,1,2.77-.81,2.41,2.41,0,0,1,2.62,2.57v.5l-2.56.1c-2.53.11-3.74,1.22-3.74,2.83a2.9,2.9,0,0,0,3.13,2.83,4.08,4.08,0,0,0,3.17-1.51v1.31h1.07V12.59Zm-1.07,3.13a3.57,3.57,0,0,1-3,1.72,2,2,0,0,1-2.28-1.92c0-1,.63-1.86,2.59-2l2.66-.16v2.32Zm8.95-7a3.14,3.14,0,0,0-1-.15,2.47,2.47,0,0,0-2.38,1.92V8.78h-1v9.37h1v-5a4.43,4.43,0,0,1,.66-2.63,2.06,2.06,0,0,1,1.62-.85,2.71,2.71,0,0,1,1,.17l.1-1Zm5.35,3.59,3.84-3.57h-1.31L108.08,13V4.21h-1V18.15h1v-4L109.35,13l3.84,5.15h1.31l-4.44-5.8Zm14,.65a4.18,4.18,0,0,0-4.24-4.39,4.59,4.59,0,0,0-4.55,4.85c0,2.87,1.76,4.89,4.49,4.89a5.1,5.1,0,0,0,3.89-1.41l-.5-.75a4.78,4.78,0,0,1-3.29,1.21c-2.12,0-3.38-1.47-3.48-3.7H124a5.77,5.77,0,0,0,.06-.7Zm-7.64-.2a3.33,3.33,0,0,1,3.34-3.28A3.26,3.26,0,0,1,123,12.8Zm14.2,4.34a2,2,0,0,1-1,.26c-1.25,0-1.37-1.23-1.37-2.26V9.77h2.38V8.82H128.3v-3h-1.07v3h-1.42v.95h1.42v4.74a6.16,6.16,0,0,0,.34,2.83,1.84,1.84,0,0,0,1.78,1,2.93,2.93,0,0,0,1.41-.3l-.1-.91Zm3.68-8.36h-1.05v9.37h1.05V8.78Zm11.13,3.77c0-2.22-.63-3.94-3.32-3.94a3.29,3.29,0,0,0-3,1.9V8.78h-1.05v9.37h1.05V13.5c0-2.22,1-4,3-4s2.29,1.56,2.29,3.07v5.56h1.07v-5.6Zm12-3.77h-1.07v1.77a3.92,3.92,0,0,0-3.53-1.94,4.54,4.54,0,0,0-4.59,4.77,4.54,4.54,0,0,0,4.59,4.77,3.84,3.84,0,0,0,3.53-2v.69a5.51,5.51,0,0,1-.8,3.19,3.46,3.46,0,0,1-2.83,1.21A5.5,5.5,0,0,1,149.34,20l-.6.8a6.12,6.12,0,0,0,3.94,1.42,4.42,4.42,0,0,0,4-2,7.47,7.47,0,0,0,.76-4V8.78Zm-1,4.58c0,2.12-1.21,3.84-3.53,3.84s-3.54-1.72-3.54-3.84,1.22-3.82,3.54-3.82,3.53,1.7,3.53,3.82Z"/><path d="M134.68,5.44a.87.87,0,1,0-.87.87.86.86,0,0,0,.87-.87Z"/><path class="cls-4" d="M10.16,11a2.22,2.22,0,1,1,2.21,2.21A2.21,2.21,0,0,1,10.16,11Z"/><path class="cls-4" d="M22.9,11a1,1,0,1,1-1-1,1,1,0,0,1,1,1Z"/><path class="cls-4" d="M20,17.63a1,1,0,1,1-1-1,1,1,0,0,1,1,1Z"/><path class="cls-4" d="M19,3.45a1,1,0,1,1-1,1,1,1,0,0,1,1-1Z"/><path class="cls-4" d="M13.85,1.48A1.48,1.48,0,1,1,12.37,0a1.48,1.48,0,0,1,1.48,1.48Z"/><path class="cls-4" d="M13.85,20.59a1.48,1.48,0,1,1-1.48-1.47,1.48,1.48,0,0,1,1.48,1.47Z"/><path class="cls-4" d="M5.91,11a3,3,0,1,1-3-3,3,3,0,0,1,3,3Z"/><path class="cls-4" d="M8.61,4.44A2.22,2.22,0,1,1,6.39,2.22,2.22,2.22,0,0,1,8.61,4.44Z"/><path class="cls-4" d="M6.39,15.42a2.22,2.22,0,1,1-2.21,2.21,2.21,2.21,0,0,1,2.21-2.21Z"/></g></g></svg>