<svg xmlns="http://www.w3.org/2000/svg" viewBox="0 0 176.21 203.46"><defs><style>.cls-1{fill:none;stroke:#eb5e5e;stroke-miterlimit:10;stroke-width:3px;}.cls-2{fill:#eb5e5e;}</style></defs><title>Creative</title><g id="Layer_2" data-name="Layer 2"><g id="Artwork"><polygon class="cls-1" points="1.5 51.73 1.5 151.73 88.1 201.73 174.71 151.73 174.71 51.73 88.1 1.73 1.5 51.73"/><rect class="cls-2" x="66.96" y="120.24" width="3.21" height="3.21" transform="translate(-66.07 84.17) rotate(-45)"/><path class="cls-2" d="M115.6,56.73,48.35,124,43.1,146.73l22.75-5.25L113.39,94l-2.27-2.27L64.74,138.05l-.53-4.81-6.85-.76-.76-6.85-4.82-.54,56-56,5.67,5.67L70.82,117.39l2.27,2.27L115.71,77l5,5-2.8,2.81,2.27,2.27,12.9-12.91Zm-68,84.7.79.78-1,.24Zm6.83-6.05,6.85.77.34,3-9.54,2.2-3.63-3.62,2.2-9.54,3,.33ZM110,66.83l5.56-5.56,13,13L123,79.79Z"/><rect class="cls-2" x="114.16" y="87.8" width="3.21" height="3.21" transform="translate(-29.32 108.04) rotate(-45)"/></g></g></svg>