<svg xmlns="http://www.w3.org/2000/svg" viewBox="0 0 176.21 203.46"><defs><style>.cls-1{fill:none;stroke:#eb5e5e;stroke-miterlimit:10;stroke-width:3px;}.cls-2{fill:#eb5e5e;}</style></defs><title>LeadGen</title><g id="Layer_2" data-name="Layer 2"><g id="Artwork"><polygon class="cls-1" points="1.5 51.73 1.5 151.73 88.1 201.73 174.71 151.73 174.71 51.73 88.1 1.73 1.5 51.73"/><path class="cls-2" d="M85.35,137.51v-2.92a19.08,19.08,0,0,1-19.07-19.06H63.36A22,22,0,0,0,85.35,137.51Z"/><polygon class="cls-2" points="105.68 73.97 107.89 75.88 117.45 64.81 110 64.81 115.36 58.65 113.16 56.73 103.58 67.73 111.07 67.73 105.68 73.97"/><polygon class="cls-2" points="61.15 73.97 63.35 75.88 72.91 64.81 65.46 64.81 70.83 58.65 68.63 56.73 59.04 67.73 66.54 67.73 61.15 73.97"/><rect class="cls-2" x="63.36" y="109.61" width="2.92" height="2.92"/><rect class="cls-2" x="117.81" y="104.21" width="2.92" height="2.92"/><rect class="cls-2" x="73.63" y="86.59" width="2.92" height="2.92"/><path class="cls-2" d="M117.8,114.11a29.7,29.7,0,0,1-59.4,0V98.42H73.66v16a14.44,14.44,0,0,0,28.88,0v-16H117.8v2.87h2.92V78.19H99.62v36.27a11.52,11.52,0,0,1-23,0v-22H73.66V95.5H58.4V81.11H73.66v2.56h2.92V78.19H55.48v35.92a32.62,32.62,0,0,0,65.24,0v-4.06H117.8Zm0-33V95.5H102.54V81.11Z"/></g></g></svg>