<svg xmlns="http://www.w3.org/2000/svg" viewBox="0 0 176.21 203.46"><defs><style>.cls-1{fill:none;stroke:#5eb1ac;stroke-miterlimit:10;stroke-width:3px;}.cls-2{fill:#5eb1ac;}</style></defs><title>research</title><g id="Layer_2" data-name="Layer 2"><g id="Artwork"><polygon class="cls-1" points="1.5 51.73 1.5 151.73 88.1 201.73 174.71 151.73 174.71 51.73 88.1 1.73 1.5 51.73"/><path class="cls-2" d="M81,63.79H77.51a2,2,0,0,1,0-3.92H98.69a2,2,0,1,1,0,3.92H95.16a1.58,1.58,0,0,0,0,3.15h2V88.67a1.51,1.51,0,0,0,.21.77l10.58,18.82-.36,0A34,34,0,0,0,89.15,112a31,31,0,0,1-14.29,3.52A30.58,30.58,0,0,1,65.34,114l-.23-.07L78.88,89.44a1.61,1.61,0,0,0,.2-.77V66.94h2a1.58,1.58,0,0,0,0-3.15m28.79,47.88,0,.08,10.34,18.4a9,9,0,0,1-7.86,13.44H63.84A9,9,0,0,1,56,130.15l7.57-13.46.15.06a33.74,33.74,0,0,0,12.83,1.85,34.11,34.11,0,0,0,14.06-3.82,30.7,30.7,0,0,1,19.15-3.12ZM75.91,88.3,53.24,128.61a12.16,12.16,0,0,0,10.6,18.12h48.52A12.16,12.16,0,0,0,123,128.61L100.27,88.26V66.69l.13,0a5.1,5.1,0,0,0-1.71-9.91H77.51a5.1,5.1,0,0,0-1.7,9.91l.13,0V88.26Z"/><path class="cls-2" d="M109.29,133H74a1.57,1.57,0,0,0,0,3.14h35.31a1.57,1.57,0,1,0,0-3.14"/><path class="cls-2" d="M66.92,133a1.57,1.57,0,1,0,1.57,1.57A1.57,1.57,0,0,0,66.92,133"/><path class="cls-2" d="M81,104.75a2,2,0,1,1,2-2,2,2,0,0,1-2,2m0-7.06a5.1,5.1,0,1,0,5.1,5.1,5.11,5.11,0,0,0-5.1-5.1"/><path class="cls-2" d="M95.16,97.69a1.57,1.57,0,1,0,1.58,1.57,1.57,1.57,0,0,0-1.58-1.57"/><path class="cls-2" d="M88.1,87.1a1.57,1.57,0,1,0,1.57,1.57A1.57,1.57,0,0,0,88.1,87.1"/></g></g></svg>