<svg xmlns="http://www.w3.org/2000/svg" viewBox="0 0 32.53 37.57"><defs><style>.cls-1{fill:#fff;}</style></defs><title>Asset4</title><g id="Layer_2" data-name="Layer 2"><g id="Artwork"><path class="cls-1" d="M23.62,18.27l-.19.13-.19.12v-6.3a1.44,1.44,0,0,0-1.44-1.44H10.73a1.45,1.45,0,0,0-1.44,1.44v6.3l-.18-.11-.19-.14c-.49-.34-.81.13-.51.57a8.53,8.53,0,0,0,3.37,2.28C10,27.2,16.14,28.17,16,25.05c0,.06,0-1.77,0-3.07l.43.11c0,1.29,0,3,0,3-.09,3.12,6.05,2.15,4.26-3.93a8.53,8.53,0,0,0,3.37-2.28C24.42,18.4,24.1,17.93,23.62,18.27Zm-6.07,1.55c-.75,0-1,.29-1.06.79a5.42,5.42,0,0,1-.56-.46l-.09-.08a1.07,1.07,0,0,0-.86-.25,9.06,9.06,0,0,1-5-.89l0,0V12.22a.77.77,0,0,1,.77-.77H21.8a.78.78,0,0,1,.78.77v6.7A9.1,9.1,0,0,1,17.55,19.82Z"/><path class="cls-1" d="M18.66,15.41a1.84,1.84,0,1,0,1.95,1.84A1.9,1.9,0,0,0,18.66,15.41Z"/><path class="cls-1" d="M14.1,15.41a1.84,1.84,0,1,0,2,1.84A1.9,1.9,0,0,0,14.1,15.41Z"/><rect class="cls-1" x="7.44" y="4.77" width="1.3" height="1.3" transform="translate(7.85 15.14) rotate(-122.44)"/><polygon class="cls-1" points="31.24 20.73 31.24 27.43 16.27 36.07 1.3 27.43 1.3 10.14 6.77 6.98 6.08 5.88 0.65 9.02 0 9.39 0 10.14 0 27.43 0 28.18 0.65 28.55 15.62 37.19 16.27 37.57 16.91 37.19 31.89 28.55 32.53 28.18 32.53 27.43 32.53 20.73 31.24 20.73"/><polygon class="cls-1" points="16.27 1.5 31.24 10.14 31.24 16.84 32.53 16.84 32.53 10.14 32.53 9.39 31.89 9.02 16.91 0.37 16.27 0 15.62 0.37 9.45 3.94 10.14 5.03 16.27 1.5"/><rect class="cls-1" x="31.23" y="18.14" width="1.3" height="1.3" transform="translate(63.77 37.57) rotate(-180)"/></g></g></svg>