<svg xmlns="http://www.w3.org/2000/svg" viewBox="0 0 32.53 37.57"><defs><style>.cls-1{fill:#fff;}</style></defs><title>linkedin</title><g id="Layer_2" data-name="Layer 2"><g id="Artwork"><path class="cls-1" d="M12.17,25.4H9V15.78h3.22ZM10.56,14.46h0a1.67,1.67,0,1,1,0-3.33,1.67,1.67,0,1,1,0,3.33ZM23.78,25.4H20.56V20.25c0-1.29-.47-2.18-1.63-2.18a1.75,1.75,0,0,0-1.65,1.18,2,2,0,0,0-.11.77V25.4H14s0-8.72,0-9.62h3.22v1.36a3.18,3.18,0,0,1,2.9-1.59c2.12,0,3.71,1.37,3.71,4.33Zm-6.63-8.23,0,0v0Z"/><rect class="cls-1" x="7.44" y="4.77" width="1.3" height="1.3" transform="translate(7.85 15.14) rotate(-122.44)"/><polygon class="cls-1" points="31.24 20.73 31.24 27.43 16.27 36.07 1.3 27.43 1.3 10.14 6.77 6.98 6.08 5.88 0.65 9.02 0 9.39 0 10.14 0 27.43 0 28.18 0.65 28.55 15.62 37.19 16.27 37.57 16.91 37.19 31.89 28.55 32.53 28.18 32.53 27.43 32.53 20.73 31.24 20.73"/><polygon class="cls-1" points="16.27 1.5 31.24 10.14 31.24 16.84 32.53 16.84 32.53 10.14 32.53 9.39 31.89 9.02 16.91 0.37 16.27 0 15.62 0.37 9.45 3.94 10.14 5.03 16.27 1.5"/><rect class="cls-1" x="31.23" y="18.14" width="1.3" height="1.3" transform="translate(63.77 37.57) rotate(-180)"/></g></g></svg>