<svg xmlns="http://www.w3.org/2000/svg" viewBox="0 0 182.78 65"><defs><style>.cls-1{fill:#fff;}</style></defs><title>logo</title><g id="Layer_2" data-name="Layer 2"><g id="Artwork"><path class="cls-1" d="M58.21,32.5c1,0,2.1,0,3.15,0a1.52,1.52,0,0,0,1.51-1.22,6.26,6.26,0,0,0,.24-1.6c0-1.2-.09-2.41-.21-3.6a5.27,5.27,0,0,0-.74-2.34,1.59,1.59,0,0,0-2.64-.26,3.74,3.74,0,0,0-.88,1.71,26.32,26.32,0,0,0-.48,7.25Z"/><path class="cls-1" d="M32.81,17.89A3.25,3.25,0,0,0,29,15.78V29.9a2.81,2.81,0,0,0,0,.29,1.28,1.28,0,0,0,1,1.24,1.82,1.82,0,0,0,1.55-.26,4,4,0,0,0,1.41-1.78,11.91,11.91,0,0,0,.9-4.64c0-1.13,0-2.26-.13-3.39A10.16,10.16,0,0,0,32.81,17.89Z"/><path class="cls-1" d="M86.26,32.2c-.24.17-.41.26-.56.38a6.14,6.14,0,0,0-1.91,2.85A16,16,0,0,0,83,41.65a6.82,6.82,0,0,0,.29,1.56,1.22,1.22,0,0,0,1.45.95,1.27,1.27,0,0,0,1.14-.89,5.67,5.67,0,0,0,.35-1.72c0-3,0-5.91,0-8.87Z"/><path class="cls-1" d="M0,0V65H182.78V0ZM50.92,45.9a23.53,23.53,0,0,1-4.71.72c-1.43,0-2.86.06-4.29,0a9.59,9.59,0,0,1-8.6-5.31c-.92-1.76-1.67-3.6-2.49-5.4-.57-1.28-1.13-2.57-1.7-3.85L29,31.79c0,.18,0,.28,0,.37v10.9a2.55,2.55,0,0,0,2.61,2.72h1v.46h-18v-.43c.45,0,.9,0,1.34-.07a2.44,2.44,0,0,0,2.29-2.66c0-.73,0-1.47,0-2.2q0-11.21,0-22.4a2.61,2.61,0,0,0-1-2.29,2.74,2.74,0,0,0-1.58-.52c-.33,0-.66,0-1,0v-.49l.41,0c7,0,14,0,21.05,0a11.9,11.9,0,0,1,5.91,1.36,6.85,6.85,0,0,1,3.57,5.35,9,9,0,0,1-5.39,9.3l-.29.14c.18.35.35.7.53,1,1.6,2.91,3.16,5.84,4.82,8.71a30.09,30.09,0,0,0,2.37,3.26,2.91,2.91,0,0,0,2.12,1.23,11.55,11.55,0,0,0,1.51-.13C51.29,45.64,51.25,45.81,50.92,45.9Zm20.14-1.8A12.71,12.71,0,0,1,64.28,47a18.29,18.29,0,0,1-7-.37,11.64,11.64,0,0,1-7.83-6.19,12.08,12.08,0,0,1-1.12-6.52,13.76,13.76,0,0,1,1.58-5.61,11.56,11.56,0,0,1,8.25-6,14,14,0,0,1,6.56.19,8.34,8.34,0,0,1,6,5.82A14,14,0,0,1,71.35,33H58.13c.13,1,.22,2,.37,2.9a14.18,14.18,0,0,0,2.17,5.75,6.71,6.71,0,0,0,4.43,3.16A8.26,8.26,0,0,0,71,43.56l.33-.2C71.46,43.7,71.29,43.9,71.06,44.1Zm28.61-.84a5,5,0,0,1-2.9,3.22,8.35,8.35,0,0,1-6.68,0,5.33,5.33,0,0,1-3.17-4,.67.67,0,0,0-.14-.33c-.07.22-.13.44-.21.66a5.45,5.45,0,0,1-3.25,3.49,10.79,10.79,0,0,1-7.69.21,5,5,0,0,1-3.35-4.75c-.1-2.59,1.21-4.35,3.23-5.73a26.21,26.21,0,0,1,6.3-2.94c1.35-.47,2.72-.87,4.08-1.29.27-.08.38-.18.38-.48,0-1.79,0-3.57,0-5.36A4.37,4.37,0,0,0,85.8,24a2.44,2.44,0,0,0-4.11-.12A4.76,4.76,0,0,0,81,26.11a14.61,14.61,0,0,0,.25,3.67,2.15,2.15,0,0,1-.55,1.7,3.89,3.89,0,0,1-5.59.7A3.33,3.33,0,0,1,74,29.78a5.92,5.92,0,0,1,2.29-5.1,10.72,10.72,0,0,1,5.64-2.37A25.75,25.75,0,0,1,85.85,22a14.09,14.09,0,0,1,6.39,1.33,7.51,7.51,0,0,1,4.47,7.11c0,3.32,0,6.63,0,9.94,0,.5,0,1,0,1.49A1.28,1.28,0,0,0,98,43.23a1.3,1.3,0,0,0,1.37-1.17,8.59,8.59,0,0,0,.07-1.24c0-.51,0-1,0-1.53a.29.29,0,0,1,0-.09H100A14.53,14.53,0,0,1,99.67,43.26Zm17.45,3H100.23v-.45h1.08a2,2,0,0,0,2.06-1.68,6.16,6.16,0,0,0,.07-1.06q0-10.59,0-21.19c0-1.4,0-2.79,0-4.19,0-.35-.11-.43-.44-.44-.79,0-1.58-.1-2.37-.15a2.27,2.27,0,0,1-.29-.08,115.85,115.85,0,0,0,13.55-5.46V43.24a5.22,5.22,0,0,0,.07.88,2,2,0,0,0,2,1.66h1.1Zm1-.44h.37a7.07,7.07,0,0,0,.92,0,2,2,0,0,0,1.89-2.2V17.26l-3-.22a131.8,131.8,0,0,0,13.5-5.51V43.41a3.93,3.93,0,0,0,.09.84,2,2,0,0,0,2,1.53H135v.46H118.11ZM145.82,51a14.19,14.19,0,0,1-3.18,4.27A7.47,7.47,0,0,1,135.55,57a4.37,4.37,0,0,1-3.38-4.5,3.47,3.47,0,0,1,4.26-3.55,4,4,0,0,1,1.92,1.15c.65.58,1.28,1.19,2,1.73a3.46,3.46,0,0,0,2.56.74,2.86,2.86,0,0,0,2.42-2,8.07,8.07,0,0,0,.47-3.41,16,16,0,0,0-1.07-5.39c-.51-1.25-1.14-2.44-1.75-3.64q-2.53-5-5.11-9.92A18.41,18.41,0,0,0,136,25a3.67,3.67,0,0,0-3.12-1.53l-.19,0V23H150.6v.44c-.28,0-.56.06-.84.07-1.61.07-2,1.18-1.91,2.43A10.6,10.6,0,0,0,149,29.45c1,2,2,3.89,3.06,5.84l.59,1.08a1.29,1.29,0,0,0,.12-.12c1.25-2.48,2.53-4.95,3.73-7.45a10,10,0,0,0,.73-2.54A2.23,2.23,0,0,0,155,23.47l-1.2-.07v-.46h9.61v.45l-1,.07a4.08,4.08,0,0,0-2.84,1.48,12.71,12.71,0,0,0-1.89,3l-7.93,15.41Q147.78,47.18,145.82,51Zm15.65-3.81A5.24,5.24,0,1,1,166.71,42,5.18,5.18,0,0,1,161.47,47.16Z"/></g></g></svg>