<svg xmlns="http://www.w3.org/2000/svg" viewBox="0 0 28.79 19.93"><defs><style>.cls-1{fill:#46285a;}</style></defs><title>quoteright</title><g id="Layer_2" data-name="Layer 2"><g id="Artwork"><path class="cls-1" d="M16.53,11.84a4.61,4.61,0,0,0,1.66-.47c.71-.31,1.12-1.06,1.23-2.26V0h9.37V11.24a7.09,7.09,0,0,1-1.19,4.22,9.33,9.33,0,0,1-3,2.68,12.37,12.37,0,0,1-4,1.41,24.4,24.4,0,0,1-4.13.38ZM0,11.84a4.55,4.55,0,0,0,1.66-.47c.71-.31,1.12-1.06,1.24-2.26V0h9.37V11.24a7,7,0,0,1-1.2,4.22,9.23,9.23,0,0,1-3,2.68,12.28,12.28,0,0,1-4,1.41A24.31,24.31,0,0,1,0,19.93Z"/></g></g></svg>