<svg xmlns="http://www.w3.org/2000/svg" viewBox="0 0 28.79 19.93"><defs><style>.cls-1{fill:#46285a;}</style></defs><title>quoteLeft</title><g id="Layer_2" data-name="Layer 2"><g id="Artwork"><path class="cls-1" d="M12.27,19.93a24.22,24.22,0,0,1-4.13-.38,12.43,12.43,0,0,1-4-1.41,9.33,9.33,0,0,1-3-2.68A7.09,7.09,0,0,1,0,11.24V0H9.37V9.11c.11,1.2.52,2,1.24,2.26a4.5,4.5,0,0,0,1.66.47Zm16.52,0a24.31,24.31,0,0,1-4.13-.38,12.28,12.28,0,0,1-4-1.41,9.23,9.23,0,0,1-3-2.68,7,7,0,0,1-1.19-4.22V0H25.9V9.11c.11,1.2.52,2,1.23,2.26a4.55,4.55,0,0,0,1.66.47Z"/></g></g></svg>