<svg xmlns="http://www.w3.org/2000/svg" viewBox="0 0 32.53 37.57"><defs><style>.cls-1{fill:#fff;}</style></defs><title>twitter</title><g id="Layer_2" data-name="Layer 2"><g id="Artwork"><path class="cls-1" d="M24.25,13.83a6.64,6.64,0,0,1-1.88.52,3.33,3.33,0,0,0,1.44-1.81,6.51,6.51,0,0,1-2.09.79,3.28,3.28,0,0,0-5.66,2.24,3.08,3.08,0,0,0,.09.75A9.29,9.29,0,0,1,9.4,12.9,3.19,3.19,0,0,0,9,14.55a3.26,3.26,0,0,0,1.46,2.72,3.34,3.34,0,0,1-1.48-.41v0a3.27,3.27,0,0,0,2.62,3.21,3,3,0,0,1-.86.12,3.26,3.26,0,0,1-.62-.06,3.29,3.29,0,0,0,3.06,2.27,6.55,6.55,0,0,1-4.06,1.4c-.27,0-.53,0-.78,0A9.31,9.31,0,0,0,22.62,16v-.42a6.63,6.63,0,0,0,1.64-1.7Z"/><rect class="cls-1" x="7.44" y="4.77" width="1.3" height="1.3" transform="translate(7.85 15.14) rotate(-122.44)"/><polygon class="cls-1" points="31.24 20.73 31.24 27.43 16.27 36.07 1.3 27.43 1.3 10.14 6.77 6.98 6.08 5.88 0.65 9.02 0 9.39 0 10.14 0 27.43 0 28.18 0.65 28.55 15.62 37.19 16.27 37.57 16.91 37.19 31.89 28.55 32.53 28.18 32.53 27.43 32.53 20.73 31.24 20.73"/><polygon class="cls-1" points="16.27 1.5 31.24 10.14 31.24 16.84 32.53 16.84 32.53 10.14 32.53 9.39 31.89 9.02 16.91 0.37 16.27 0 15.62 0.37 9.45 3.94 10.14 5.03 16.27 1.5"/><rect class="cls-1" x="31.23" y="18.14" width="1.3" height="1.3" transform="translate(63.77 37.57) rotate(-180)"/></g></g></svg>