<svg xmlns="http://www.w3.org/2000/svg" viewBox="0 0 32.53 37.57"><defs><style>.cls-1{fill:#fff;}</style></defs><title>youtube</title><g id="Layer_2" data-name="Layer 2"><g id="Artwork"><rect class="cls-1" x="7.44" y="4.77" width="1.3" height="1.3" transform="translate(7.85 15.14) rotate(-122.44)"/><path class="cls-1" d="M25,16.06a9.55,9.55,0,0,0-.15-1.61,2.46,2.46,0,0,0-2.09-2,12,12,0,0,0-1.59-.08q-4.29-.14-8.56,0c-.89,0-1.78,0-2.67.1a2.46,2.46,0,0,0-2.2,1.69,2.93,2.93,0,0,0-.18.83c0,.74-.08,1.47-.11,2.21l0,.2V20.2c0,.44,0,.89.07,1.33a10.3,10.3,0,0,0,.15,1.57,2.52,2.52,0,0,0,1.91,2,3,3,0,0,0,.6.06c3.19.15,6.38.17,9.57.1,1,0,1.91,0,2.86-.11a2.46,2.46,0,0,0,2.07-1.45,3.38,3.38,0,0,0,.32-1.5c0-.65.05-1.29.08-1.94a.78.78,0,0,1,0-.16V17.4C25.07,17,25.05,16.5,25,16.06Zm-10.43,6V15.46l5,3.31Z"/><polygon class="cls-1" points="31.24 20.73 31.24 27.43 16.27 36.07 1.3 27.43 1.3 10.14 6.77 6.98 6.08 5.88 0.65 9.02 0 9.39 0 10.14 0 27.43 0 28.18 0.65 28.55 15.62 37.19 16.27 37.57 16.91 37.19 31.89 28.55 32.53 28.18 32.53 27.43 32.53 20.73 31.24 20.73"/><polygon class="cls-1" points="16.27 1.5 31.24 10.14 31.24 16.84 32.53 16.84 32.53 10.14 32.53 9.39 31.89 9.02 16.91 0.37 16.27 0 15.62 0.37 9.45 3.94 10.14 5.03 16.27 1.5"/><rect class="cls-1" x="31.23" y="18.14" width="1.3" height="1.3" transform="translate(63.77 37.57) rotate(-180)"/></g></g></svg>