<svg xmlns="http://www.w3.org/2000/svg" viewBox="0 0 169 60"><defs><style>.cls-1{fill:#fff;}.cls-2{fill:#46285a;}</style></defs><title>Asset 2</title><g id="Layer_2" data-name="Layer 2"><g id="Artwork"><rect class="cls-1" width="169" height="60"/><path class="cls-2" d="M26.73,15.06v13.3a1.21,1.21,0,0,0,.89,1.16,1.72,1.72,0,0,0,1.43-.25,3.64,3.64,0,0,0,1.31-1.64,10.84,10.84,0,0,0,.83-4.28c0-1.05-.05-2.09-.12-3.14a9.18,9.18,0,0,0-.79-3.2,3,3,0,0,0-3.55-2M13.45,15v-.45c.13,0,.25,0,.38,0,6.48,0,13,0,19.43,0a10.87,10.87,0,0,1,5.45,1.25A6.31,6.31,0,0,1,42,20.68a8.35,8.35,0,0,1-5,8.58l-.27.13c.17.33.32.65.49,1,1.47,2.68,2.91,5.38,4.45,8a24.58,24.58,0,0,0,2.19,3,2.67,2.67,0,0,0,2,1.14,9.67,9.67,0,0,0,1.39-.12c.1.22.07.38-.24.46a21.38,21.38,0,0,1-4.35.66c-1.32,0-2.64.06-4,0a8.85,8.85,0,0,1-7.93-4.91c-.85-1.62-1.55-3.32-2.3-5-.53-1.18-1.05-2.37-1.57-3.56a2.41,2.41,0,0,0-.13-.23c0,.16,0,.25,0,.34V40.25a2.36,2.36,0,0,0,2.41,2.51c.3,0,.61,0,.94,0v.42H13.46v-.39c.42,0,.83,0,1.24-.07a2.25,2.25,0,0,0,2.11-2.45c0-.68,0-1.36,0-2V17.56a2.42,2.42,0,0,0-1-2.12A2.55,2.55,0,0,0,14.39,15c-.31,0-.61,0-.94,0"/><path class="cls-2" d="M79.63,30.23a5.69,5.69,0,0,0-.52.35,5.49,5.49,0,0,0-1.76,2.63A14.53,14.53,0,0,0,76.64,39a6,6,0,0,0,.26,1.44,1.13,1.13,0,0,0,1.34.87,1.18,1.18,0,0,0,1.05-.82,5.11,5.11,0,0,0,.32-1.59c0-2.73,0-5.46,0-8.19ZM91.8,36.69h.47A13.38,13.38,0,0,1,92,40.43a4.6,4.6,0,0,1-2.67,3,7.7,7.7,0,0,1-6.17,0,4.92,4.92,0,0,1-2.93-3.66.56.56,0,0,0-.13-.3l-.18.61a5.07,5.07,0,0,1-3,3.22,10,10,0,0,1-7.1.2,4.57,4.57,0,0,1-3.09-4.38,5.84,5.84,0,0,1,3-5.29,24.13,24.13,0,0,1,5.82-2.72c1.24-.43,2.51-.81,3.77-1.19.24-.08.35-.17.34-.45,0-1.65,0-3.29,0-4.94a4.06,4.06,0,0,0-.42-1.9,2.26,2.26,0,0,0-3.8-.11,4.38,4.38,0,0,0-.62,2.07A13.76,13.76,0,0,0,75,28a2,2,0,0,1-.51,1.57,3.59,3.59,0,0,1-5.16.65,3.1,3.1,0,0,1-1-2.22,5.46,5.46,0,0,1,2.11-4.71,10,10,0,0,1,5.21-2.19,24.29,24.29,0,0,1,3.62-.25,13.11,13.11,0,0,1,5.9,1.22,7,7,0,0,1,4.12,6.57c0,3.06,0,6.12,0,9.17,0,.46,0,.92,0,1.38a1.17,1.17,0,0,0,1.12,1.22,1.19,1.19,0,0,0,1.26-1.08,8.62,8.62,0,0,0,.06-1.14c0-.47,0-.94,0-1.41a.2.2,0,0,1,0-.08"/><path class="cls-2" d="M109,43.18v-.41h.34a8,8,0,0,0,.85,0,1.84,1.84,0,0,0,1.75-2V16.43l-2.78-.2a118.42,118.42,0,0,0,12.46-5.09v.4q0,14.52,0,29a3.39,3.39,0,0,0,.08.78,1.8,1.8,0,0,0,1.85,1.41c.32,0,.65,0,1,0v.42Z"/><path class="cls-2" d="M92.63,16.19a108.22,108.22,0,0,0,12.51-5V40.41a4.47,4.47,0,0,0,.07.82,1.82,1.82,0,0,0,1.88,1.53c.34,0,.67,0,1,0v.42H92.52v-.42c.33,0,.66,0,1,0a1.82,1.82,0,0,0,1.9-1.55,5.32,5.32,0,0,0,.07-1V20.67c0-1.29,0-2.58,0-3.87,0-.32-.11-.4-.41-.41-.73,0-1.46-.08-2.19-.13l-.27-.07"/><path class="cls-2" d="M53.74,30.5c1,0,1.93,0,2.9,0A1.4,1.4,0,0,0,58,29.36a5.7,5.7,0,0,0,.23-1.47c0-1.11-.09-2.22-.19-3.33a5,5,0,0,0-.69-2.16,1.47,1.47,0,0,0-2.44-.24,3.56,3.56,0,0,0-.81,1.58,23.9,23.9,0,0,0-.44,6.7l.05.06m-.08.44c.12.93.2,1.81.34,2.68a13.2,13.2,0,0,0,2,5.31,6.23,6.23,0,0,0,4.1,2.92,7.65,7.65,0,0,0,5.44-1.14l.3-.19c.12.32,0,.5-.25.69a11.75,11.75,0,0,1-6.25,2.67,17.35,17.35,0,0,1-6.46-.34,10.8,10.8,0,0,1-7.23-5.72,11.24,11.24,0,0,1-1-6,12.9,12.9,0,0,1,1.46-5.18,10.65,10.65,0,0,1,7.62-5.54,13,13,0,0,1,6,.18,7.69,7.69,0,0,1,5.51,5.37,13,13,0,0,1,.6,4.31Z"/><path class="cls-2" d="M139,21.69v.4l-.77.07c-1.49.06-1.89,1.09-1.76,2.24a10.05,10.05,0,0,0,1.05,3.29c.91,1.81,1.88,3.59,2.82,5.38l.55,1A1.08,1.08,0,0,0,141,34c1.15-2.29,2.34-4.56,3.44-6.88a9.7,9.7,0,0,0,.68-2.34A2.06,2.06,0,0,0,143,22.17l-1.1-.07v-.42h8.86v.41c-.3,0-.6.05-.9.06a3.74,3.74,0,0,0-2.62,1.38,11.39,11.39,0,0,0-1.75,2.79l-7.31,14.22-3.62,7a13,13,0,0,1-2.93,4,6.87,6.87,0,0,1-6.55,1.59A4,4,0,0,1,122,48.93a3.21,3.21,0,0,1,3.93-3.27,3.6,3.6,0,0,1,1.78,1.06c.6.53,1.18,1.1,1.81,1.6a3.25,3.25,0,0,0,2.37.68,2.63,2.63,0,0,0,2.23-1.86,7.36,7.36,0,0,0,.44-3.15,14.81,14.81,0,0,0-1-5c-.47-1.15-1-2.25-1.61-3.36q-2.36-4.59-4.72-9.16a17.21,17.21,0,0,0-1.73-3,3.36,3.36,0,0,0-2.88-1.41l-.18,0v-.41Z"/><path class="cls-2" d="M149.06,34.36a4.84,4.84,0,1,1-4.86,4.8,4.78,4.78,0,0,1,4.86-4.8"/></g></g></svg>